<svg version="1.1" id="Layer_1" xmlns="http://www.w3.org/2000/svg" xmlns:xlink="http://www.w3.org/1999/xlink" x="0px"
     y="0px"
     viewBox="0 0 1750 520" fill="#d9d9d910" style="enable-background:new 0 0 1750 520;" xml:space="preserve">
<g>
	<path d="M834.4,32.4c14.9,0,29.7,0,44.6,0c4.8,0,9.1,1.2,12.6,4.6c3,2.8,4.6,6.2,4.6,10.2c0.1,22.7,0.1,45.5,0,68.2
		c0,8.6-6.6,14.9-15.6,15.2c-3.4,0.1-6.8,0.1-10.2,0c-1.5,0-1.9,0.4-1.9,1.9c0.1,6,0,12-0.1,18.1c0,1.6,0.1,3.5-1.9,4.2
		c-1.9,0.7-3.2-0.5-4.3-1.7c-6.9-6.8-13.7-13.6-20.5-20.5c-1.3-1.3-2.7-2-4.6-1.9c-2.3,0.1-4.7,0.1-7,0c-1.5,0-1.9,0.5-1.8,2
		c0.1,6.8,0.1,13.6-0.1,20.3c-0.2,6.5-5,12.3-11.3,14c-1,0.3-1.9,0.3-2.9,0.3c-9.4,0-18.8,0.1-28.2,0.1c-3.1,0-5.5,0.8-7.5,3.3
		c-3.2,3.9-6.7,7.6-10.1,11.4c-0.9,1-1.8,2-2.9,2.9c-2.3,1.7-4.2,0.9-4.5-1.9c-0.4-3.8-0.3-7.5-0.3-11.3c0-4.3,0.5-4-3.9-4.3
		c-4-0.2-7.3-1.8-10.1-4.5c-3.1-3-4.5-6.6-4.5-10.7c-0.1-11.8-0.1-23.7,0-35.5c0.1-10.5,6.4-16.6,17-16.6c3.7,0,7.4-0.1,11.1,0.1
		c2.2,0.1,2.8-0.5,2.8-2.7c-0.1-16.2,0-32.4-0.1-48.6c0-5.8,2.1-10.4,6.9-13.8c2.8-2,6-2.7,9.4-2.7
		C804.1,32.4,819.2,32.4,834.4,32.4C834.4,32.4,834.4,32.4,834.4,32.4z M834.9,38.5C834.9,38.5,834.9,38.5,834.9,38.5
		c-15.4,0.1-30.8,0-46.1,0.1c-6.3,0-9.8,3.7-9.8,9.9c0,5.1,0,10.2,0,15.4c0,17.2,0.1,34.3-0.1,51.5c0,4.6,4.5,9.2,9.2,9.2
		c16.8-0.2,33.6,0,50.5,0c2,0,3.6,0.5,5.1,2c5.5,5.5,11.1,10.9,16.7,16.3c0.5,0.5,1.1,1.3,1.9,1c0.9-0.4,0.5-1.3,0.4-2
		c-0.3-4.2-0.3-8.4-0.3-12.6c0.1-3.8,1-4.6,4.7-4.7c4.5,0,8.9-0.1,13.4,0c4.3,0.1,7-2,8.9-5.5c1-1.9,0.8-4,0.8-6
		c0-17.1,0-34.2,0-51.3c0-4.2,0.1-8.4,0-12.7c-0.1-7.4-4.6-10.9-11.3-10.8C864.3,38.6,849.6,38.5,834.9,38.5z M797,161.5
		C797,161.5,797,161.5,797,161.5c5.2,0,10.5,0,15.7,0c3.4,0,6.2-1.3,8-4.3c1.4-2.2,1.6-4.6,1.6-7.2c-0.1-5.4-0.1-10.8-0.2-16.3
		c0-3.2-0.1-3.2-3.3-3.2c-9.9,0-19.8,0.1-29.8,0.1c-9.8,0-16.4-6.7-16.4-16.4c0-2.1,0-4.2,0-6.3c0-1-0.2-1.7-1.5-1.8
		c-5.1-0.4-10.3-0.5-15.4,0.1c-4,0.5-7.7,4.2-7.8,8c-0.1,12.9-0.1,25.8,0,38.6c0,4.6,3.3,7.9,7.9,8.4c2.4,0.3,4.8,0.4,7.3,0.4
		c2.1,0.1,2.9,1.2,3,3.2c0.1,2.5,0.1,5,0.2,7.4c0,0.6-0.4,1.5,0.5,1.8c0.8,0.2,1.2-0.5,1.6-1c2.7-3.1,5.3-6.2,8-9.3
		c1.4-1.6,3-2.3,5.2-2.3C786.7,161.6,791.9,161.5,797,161.5z"/>
    <path d="M837.3,59.9c0,2.9,0,5.7,0,8.6c0,1.7,0.2,3.3,1.1,4.8c2.4,4.3,4.8,8.7,7.2,13c0.8,1.5,1.8,1.9,3.5,1.8
		c7.4-0.6,13.2,5.1,13.1,12.8c-0.1,6.2-6.9,11.8-13.5,11.2c-7-0.6-12.3-7.4-11-14.2c0.4-1.9,1.2-3.8,2.5-5.3c1.1-1.4,1-2.5,0.2-3.9
		c-2.4-4.2-4.7-8.4-7.1-12.6c-1.2-2.1-1.7-4.3-1.6-6.7c0-6.9-0.1-13.8-0.1-20.8c0-3.3,0.3-3.6,3.6-3.5c1.5,0.1,2,0.7,2.2,2.2
		C837.7,51.6,837.4,55.7,837.3,59.9z M850.2,94c-3.7-0.1-6.4,2.2-6.6,5.5c-0.2,3.6,2.6,6.6,6.2,6.7c3.4,0.1,6.3-2.6,6.4-6
		C856.3,96.8,853.7,94.1,850.2,94z"/>
    <path d="M809.7,61.4c0,4.3,0.1,8.6,0,12.9c0,1.3,0.5,1.8,1.6,2.3c5.5,2.2,8.7,8.6,7.2,14c-1.8,6.3-7.6,10.1-14,9.1
		c-6.2-0.9-10.1-5.9-10.1-12.2c0-5.3,2.6-8.6,7.1-10.8c1.6-0.8,2.1-1.7,2.1-3.5c-0.1-8.1,0-16.2,0-24.4c0-1.3-0.1-2.8,1.4-3.5
		c2.5-1.3,4.7,0,4.8,3C809.8,52.7,809.8,57,809.7,61.4C809.7,61.4,809.7,61.4,809.7,61.4z M812.7,88c0.1-3.4-2.5-6.5-5.6-6.5
		c-3.5,0-6.8,2.8-6.8,5.7c0,3.8,2.7,6.5,6.3,6.6C809.8,93.9,812.7,91.1,812.7,88z"/>
    <path d="M865.3,52.1c0,0.2,0,0.5,0,0.7c-0.7,3.1,0.4,5,3.5,6.5c4.8,2.3,6.7,8.1,5.1,13.4c-1.7,5.7-6.6,9.1-12.5,8.8
		c-5.3-0.3-9.9-4.5-11-9.9c-1.1-5.3,1.4-10.6,6.4-13c1.8-0.8,2.5-1.9,2.4-3.8c-0.1-2-0.1-3.9,0-5.9c0.1-1.4,0.2-3,1.6-3.8
		c2-1.1,4.1,0,4.4,2.2c0.2,1.6,0,3.2,0,4.7C865.2,52.1,865.2,52.1,865.3,52.1z M868.4,69.5c0-3.7-2.5-6.4-6.1-6.5
		c-3.4,0-6.1,2.8-6.1,6.4c-0.1,2.9,3,6.1,5.8,6.1C865.2,75.6,868.3,72.6,868.4,69.5z"/>
</g>
    <g>
	<path d="M1110.5,405.3c0-12.3,0.2-24.7-0.1-37c-0.2-7.8,3.3-13,9.7-16.8c7.3-4.2,15.2-6.5,23.4-8c17.5-3.3,34.9-3,52.3,0.8
		c7.9,1.7,15.5,4.2,22.2,8.9c4.9,3.4,7.4,7.7,7.4,13.7c-0.1,10.6-0.1,21.2-0.1,31.8c0,3.4,0,3.4,3.2,3.4c7.2,0,14.4-0.1,21.6,0
		c2,0,3.1-0.6,4-2.4c2.3-5,6.5-7.5,12-7.4c4.9,0,8.8,2.3,11.3,6.5c4,6.5,1.4,15.1-5.5,18.7c-6.2,3.3-15,0.3-17.9-6.2
		c-0.8-1.9-1.9-2.5-3.7-2.4c-7.5,0-14.9,0.1-22.4,0c-2.1,0-2.7,0.8-2.7,2.8c0.1,10.8-0.1,21.5,0.2,32.3c0.1,5.5-2.2,9.4-6.2,12.6
		c-7.2,5.7-15.6,8.5-24.4,10.4c-19.4,4.2-38.7,3.3-57.9-1c-7.2-1.6-13.9-4.5-19.7-9.1c-4.2-3.3-6.7-7.4-6.6-13
		C1110.6,431,1110.5,418.1,1110.5,405.3C1110.5,405.3,1110.5,405.3,1110.5,405.3z M1167.5,381.8c11.3-0.3,22.7-0.8,33.6-4.4
		c5.7-1.8,11.2-4.1,15.6-8.4c1.9-1.9,2.5-4.6,1.4-6.6c-1.1-2-2.5-3.7-4.5-4.9c-5.2-3.1-10.9-5.2-16.7-6.7
		c-11.3-2.8-22.7-3.1-34.3-2.9c-10.9,0.2-21.6,1.9-31.9,5.4c-3.9,1.4-7.6,3.2-10.7,6.1c-3.8,3.7-3.7,7.4,0.6,10.7
		c3.9,3.1,8.3,5.4,13.1,6.8C1144.8,380.5,1156.1,381.7,1167.5,381.8z M1165.5,463c7.7,0.2,15.4-0.2,23-1.5
		c8.5-1.5,16.8-3.7,24.2-8.3c4-2.5,6.3-5.7,6.1-10.6c-0.1-3,0-6,0-8.9c0-2.9-0.4-3.1-2.9-1.8c-5.4,2.9-10.9,5.4-16.9,6.9
		c-14.8,3.7-29.7,4.7-44.8,3.1c-12.6-1.3-25-4-35.9-11.1c-1.1-0.7-1.3-0.1-1.2,0.9c0.4,3.2,0.6,6.5,0.1,9.7
		c-1,6.5,2.4,10.1,7.4,12.8c1.7,0.9,3.4,1.8,5.1,2.5C1141.2,461.1,1153.2,462.8,1165.5,463z M1168,435.8c9,0,18-0.5,26.9-2.6
		c7.4-1.8,14.7-4,20.6-9.2c2.2-1.9,3.3-4.3,3.3-7.2c0-3.6-0.1-7.1,0.1-10.7c0.1-2.3-0.8-2.4-2.5-1.4c-5.3,3.1-11,5.4-17,6.9
		c-15.4,3.9-31,4.9-46.8,2.9c-11.9-1.5-23.5-3.8-33.8-10.5c-1.2-0.8-1.6-0.3-1.6,1c0,4,0,8-0.1,11.9c-0.1,2.9,1,5.1,3.1,7
		c3.6,3.2,7.8,5.2,12.3,6.8C1144.1,434.6,1156,435.9,1168,435.8z M1168.6,408.9c10.3-0.2,21.5-1.1,32.3-4.5
		c5.2-1.6,10.3-3.7,14.5-7.3c1.7-1.5,2.7-3.3,3-5.5c0.7-4.1,0.3-8.3,0.4-12.4c0-2.1-0.7-2.5-2.6-1.3c-3.7,2.4-7.7,4.2-11.9,5.5
		c-8.5,2.8-17.2,4.1-26.1,4.6c-20.5,1.1-40.5-0.1-59.1-10.2c-1.6-0.9-2-0.3-2,1.3c0.1,3,0.4,6-0.1,8.9c-0.8,5.6,2,8.9,6.4,11.5
		c1.9,1.1,3.8,2.1,5.8,2.9C1141.7,407.2,1154.5,408.8,1168.6,408.9z M1272.8,406.1c0-4.6-2.8-7.6-7-7.6c-3.6,0-6.7,3.5-6.7,7.5
		c0,3.2,3.4,6.4,6.7,6.4C1269.5,412.4,1272.8,409.4,1272.8,406.1z"/>
        <path d="M1249.2,361c0-3.8,0-7.6,0-11.4c0-1.5-0.3-2.3-1.9-2.9c-6-2.2-9.5-9.2-8-15.4c1.6-6.3,7.7-10.8,13.8-10.3
		c7.1,0.7,12.1,5.8,12.4,12.5c0.3,6-2.5,10.6-8,13c-1.5,0.7-2,1.5-2,3.1c0.1,9.1,0.1,18.2,0,27.3c0,3.6-0.4,3.9-3.9,4.4
		c-5.2,0.7-10.4,0.3-15.6,0.3c-2.2,0-3.2-1.4-3.3-3.5c-0.2-2.2,1-3,3-3c3.6-0.1,7.3-0.3,10.9-0.2c2,0,2.8-0.6,2.7-2.7
		C1249.1,368.6,1249.2,364.8,1249.2,361C1249.2,361,1249.2,361,1249.2,361z M1252.4,341.2c3.8,0,6.7-2.9,6.7-6.5c0-3.9-3-6.9-6.9-7
		c-3.7-0.1-6.8,3.1-6.7,7.1C1245.6,338.4,1248.7,341.2,1252.4,341.2z"/>
        <path d="M1255.6,446.7c0,4.5,0.1,8.9,0,13.4c0,1.9,0.6,3.1,2.2,4c4.3,2.3,7.3,5.6,7.9,10.7c0.8,6.7-3.4,12.9-9.9,14.4
		c-7,1.6-13.7-1.9-16.1-8.4c-2.2-6.2,0.7-13.6,6.8-16.3c2.2-1,2.8-2.2,2.7-4.5c-0.2-7.1-0.1-14.2-0.1-21.4c0-2.2-0.6-3.1-3-3
		c-3.6,0.1-7.1-0.1-10.7,0c-2.1,0.1-2.8-1-2.9-2.8c-0.2-1.8,0.5-3.2,2.4-3.3c5.9-0.4,11.9-0.6,17.8-0.1c1.9,0.2,2.7,1.3,2.7,3.2
		C1255.5,437.3,1255.5,442,1255.6,446.7C1255.5,446.7,1255.6,446.7,1255.6,446.7z M1245.6,475.9c0,4.5,2.9,7.5,7.3,7.5
		c3.3,0,6.2-3.4,6.2-7.3c0-3.7-2.8-6.2-6.8-6.2C1248.5,469.8,1245.6,472.4,1245.6,475.9z"/>
</g>
    <g>
	<path d="M244,323.6c-0.8-12.6,10.8-22.3,21.9-20.4c1.6,0.3,2.4-0.5,3.1-1.7c2.8-4.8,6.8-8,12.2-9.3c7.2-1.7,13.4,0.4,18.5,5.6
		c0.3,0.3,0.6,0.6,0.8,0.9c2.1,2.4,2.1,2.4,4.3-0.1c8.8-10.2,24.2-9.1,31.3,2.3c1,1.7,2.2,2.2,4,2c11.4-1.1,19.9,7.5,20.9,15.3
		c0.7,5.5,1.2,10.8,3.1,16c0.5,1.4,0.3,3.2-0.1,4.7c-0.3,1.3-0.1,2.4,0.9,3.4c5,5,7.5,11.2,7.9,18c0.5,7.3-2.1,13.7-6.7,19.3
		c-1.2,1.5-1.9,3-1.8,4.9c0,0.6,0.1,1.3-0.1,1.9c-2.1,5.2-2.4,10.9-4.1,16.1c-1.8,5.5-5.9,9.2-11.4,11.3c-1.5,0.6-2.3,1.5-2.9,2.9
		c-3.6,8.7-10,13.9-19.5,14.9c-8.9,0.9-15.9-2.5-21.4-9.3c-2.1-2.6-2.4-2.7-4.5,0c-4.6,5.9-10.6,9.4-18.1,9.5
		c-9.2,0.1-18.1-4.1-22.6-14.8c-0.8-1.8-1.8-2.9-3.6-3.7c-7.9-3.1-11.4-9.2-12.4-17.5c-0.5-4.8-3.2-9.3-3.3-14.4
		c0-0.7-0.9-1.4-1.4-2c-9.4-11.4-9-25.9,1-36.7c1-1,1.5-2.1,1.2-3.5c-0.7-3.2-0.2-6.4,1.2-9.3C243.7,327.7,244.4,325.4,244,323.6z
		 M305.1,318.5c0,2.5-0.1,4.3,0,6c0.1,1.9-0.6,3-2.5,3c-1.9,0.1-2.1-1.3-2.2-2.8c-0.1-4.8-0.3-9.7-0.3-14.5c-0.1-4.5-2-8-5.5-10.7
		c-6.3-4.9-14.7-3.7-20.3,2.8c-1.9,2.2-1.9,2.2,0.1,4.4c0.9,1,1.8,2.1,0.8,3.5c-1,1.3-2.3,1-3.6,0.5c-0.4-0.2-0.8-0.5-1.2-0.7
		c-3.2-2.1-6.8-2.4-10.4-1.6c-7.7,1.8-12.1,8.9-10.7,16.9c0.3,1.7,0,3.1-1,4.5c-1.1,1.5-1.8,3.1-2.1,4.9c-0.3,2.5,0,2.8,2.3,1.9
		c1.7-0.7,3.4-1.6,5.3-1.7c3.2-0.2,4.7-1.8,5.7-4.8c2.2-6.2,8.3-10.2,14.4-10c1.4,0,2.8,0.1,2.9,1.9c0.2,1.8-0.7,2.6-2.5,2.9
		c-2.8,0.4-5.5,1.2-7.7,3.2c-2.6,2.3-3.4,5.3-3.8,8.5c-0.2,1.5-1,2.3-2.6,2.4c-1.5,0.1-3,0.3-4.5,0.6c-11.8,2.6-19.7,13.4-17.6,26.9
		c0.4,2.8,1.5,5.3,2.8,7.8c1,2,2.2,2.1,3.6,0.4c0.6-0.7,1.2-1.4,1.8-2c3.1-2.9,6.7-4.7,11-4.5c1.4,0.1,2.5,0.4,2.6,2.1
		c0.1,1.6-0.8,2.2-2.2,2.5c-0.3,0.1-0.7,0.1-1,0.2c-9.5,1-13.9,11.9-8.1,18.7c0.8,1,1.1,2,0.8,3.3c-1.4,5.8,2.7,11.9,8,14.2
		c1.1,0.5,2.2,0.5,3-0.5c1.9-2.5,2.8-5.2,2.5-8.3c-0.3-2.7-1.4-5-3.2-7c-0.8-1-1-2.2-0.1-3.2c1-1.1,2.1-0.8,3.2-0.1
		c0.6,0.4,1.1,0.9,1.5,1.4c1.9,2.3,3,5,3.4,7.9c0.2,1.7,0.9,2.1,2.4,2.4c4,1,7.1,3.3,8.9,7.1c0.7,1.4,0.8,2.9-0.8,3.9
		c-1.4,0.9-2.5-0.2-3.3-1.2c-0.4-0.5-0.9-1.1-1.2-1.7c-0.9-1.6-2.3-2.5-3.9-3.2c-1.4-0.6-2.3-0.5-3,0.9c-0.7,1.4-1.4,2.7-2.3,3.9
		c-0.7,1.1-0.7,2.1-0.3,3.3c4.4,13.1,21.5,16.8,31.1,6.8c3.9-4,5.3-8.9,5.2-14.3c-0.1-2.8,0-5.7,0.1-8.5c0-1.4,0.7-2.3,2.3-2.3
		c1.5,0.1,2.3,0.9,2.3,2.4c0.1,2.1,0,4.1,0.1,6.2c0.1,2.8,0,5.7,0.7,8.4c1.8,7.2,8.4,12.6,16.3,13.6c6.9,0.9,14.5-3.2,18.1-9.4
		c1.6-2.7,2.4-5.3-0.2-7.9c-0.4-0.4-0.6-0.9-0.8-1.4c-1.5-2.5-2-2.6-4.6-1.2c-1.2,0.7-2.1,1.5-2.9,2.6c-0.5,0.8-1.1,1.6-1.7,2.3
		c-1.2,1.3-2.7,1-3.4-0.7c-0.5-1.1-0.2-2.2,0.4-3.2c1.8-3.1,4.3-5.5,7.8-6.5c2.2-0.6,3.2-1.8,3.5-3.9c0.5-3.3,2.1-5.9,4.6-8.1
		c1-0.9,1.9-1,3-0.1c1.1,0.9,1.2,1.9,0.4,3.1c-0.6,0.8-1.1,1.6-1.7,2.4c-2.5,3.9-2.4,9.2,0.2,12.7c0.8,1,1.6,1.7,3,1.2
		c5.1-1.5,9.5-8.1,8.6-13.3c-0.3-1.9,0.1-3.4,1-4.8c1-1.6,1.9-3.2,2-5.1c0.2-7.1-3.7-11.9-10.9-13c-1.6-0.3-3.1-0.7-2.9-2.7
		c0.2-2,1.8-2.1,3.3-2c5,0.1,9,2.4,12.1,6.3c1.7,2.1,2.2,2,3.6-0.2c2.6-4.1,3.5-8.6,3.2-13.5c-0.4-9-4.9-15.3-12.6-19.5
		c-3-1.6-6.3-1.9-9.6-2.3c-1.8-0.2-2.6-1.1-2.8-2.9c-0.6-5.9-3.9-9.4-9.6-10.7c-0.9-0.2-1.8-0.4-2.6-0.6c-1.3-0.4-1.9-1.3-1.7-2.7
		c0.2-1.3,1.1-1.8,2.4-1.9c1.9-0.1,3.7,0.2,5.5,0.9c5.3,2.1,8.6,6.1,10.4,11.4c0.3,0.9,0.5,2,1.7,2.1c3.3,0.3,6.3,1.5,9.3,2.7
		c1,0.4,1.4,0,1.4-1c0.2-2.6-0.9-4.7-2.3-6.7c-0.8-1.1-1-2.1-0.8-3.5c1.2-7.1-1-12.6-6.6-15.9c-5.2-3.1-10.6-2.6-15.7,0.4
		c-1.1,0.7-2.3,1.3-3.3,0c-1.1-1.4-0.6-2.6,0.6-3.6c1.6-1.4,1.4-2.8,0.2-4.3c-3.9-5-9-6.7-15.1-5.5c-5.4,1.1-10.5,6.5-10.8,11.5
		C305.3,312.1,304.8,315.7,305.1,318.5z"/>
        <path d="M302.6,389.7c-5.8,0-11.6,0-17.4,0c-6.8,0-10.5-3.7-10.5-10.5c0-11.5,0-22.9,0-34.4c0-7.2,3.5-10.7,10.7-10.7
		c11.7,0,23.4,0,35,0c6.8,0,10.3,3.6,10.3,10.4c0,11.7,0,23.4,0,35c0,6.6-3.6,10.2-10.3,10.2C314.5,389.8,308.6,389.7,302.6,389.7z
		 M302.6,384.7C302.6,384.7,302.6,384.7,302.6,384.7c5.7,0,11.5,0,17.2,0c4.5,0,5.8-1.2,5.8-5.8c0.1-5,0-10,0-14.9
		c0-6.4,0.1-12.9-0.1-19.3c-0.1-4.8-1-5.6-5.8-5.6c-7.5,0-14.9,0-22.4,0c-3.5,0-7.1-0.5-10.6-0.3c-7.2,0.5-6.8,0.8-7,6.9
		c-0.2,7.6-0.1,15.2-0.1,22.8c0,3.7-0.1,7.3,0,11c0.1,4,1.3,5.1,5.4,5.1C291,384.7,296.8,384.7,302.6,384.7z"/>
        <path d="M286.4,372.7c0.2-0.7,0.4-1.5,0.7-2.2c2.4-6.5,4.8-12.9,7.2-19.4c0.2-0.6,0.6-1.3,0.9-1.8c0.9-1.4,2.1-1.4,3.3-0.4
		c0.7,0.6,1.1,1.4,1.4,2.3c2.4,6.4,4.8,12.8,7.2,19.2c0.2,0.6,0.4,1.3,0.6,2c0.3,1.2,0.3,2.3-1,2.7c-1.3,0.4-2.5,0.2-3.3-1.1
		c-0.1-0.1-0.2-0.2-0.2-0.4c-0.6-3.3-2.9-3.8-5.7-3.4c-0.6,0.1-1.3,0.1-1.9,0c-2.3-0.3-3.9,0.2-4.6,2.8c-0.3,1.2-1.2,2.7-2.9,2.4
		C287.1,375.2,286.6,374.1,286.4,372.7z M296.7,365.1c2,0,3-0.6,2.7-1.5c-0.5-1.6-0.7-3.4-2.3-4.4c-0.5-0.3-2.2,3.2-2.1,4.4
		C295,365,296,365.1,296.7,365.1z"/>
        <path d="M316.7,362c0,3,0,6.1,0,9.1c0,0.9-0.1,1.8-0.4,2.7c-0.4,1.2-1.3,1.6-2.4,1.6c-1.2,0.1-1.8-0.7-2-1.7
		c-0.2-0.7-0.3-1.4-0.3-2c0-6.8,0-13.5,0-20.3c0-1.5,0.1-2.9,2-3.1c1.8-0.1,2.9,1,2.9,2.8c0.1,3.7,0,7.3,0,11
		C316.5,362,316.6,362,316.7,362z"/>
</g>
    <g>
	<path d="M101.5,500.5c-12.8,0-25.6,0-38.4,0c-4.8,0-5.1-0.3-5.1-5.1c0-6.3,0.2-12.5,0-18.8c-0.3-9.3,6.3-17.8,17.1-19.3
		c4.6-0.6,9.3-0.2,14-0.3c2.1,0,3.6,1.2,5,2.6c2,2,4,3.9,5.9,5.9c1.1,1.1,1.9,1,3-0.1c2.3-2.4,4.7-4.7,7-7.1
		c0.7-0.8,1.6-1.3,2.6-1.3c5.5-0.1,10.9-0.5,16.3,0.5c9.1,1.7,15.1,8.2,15.8,17.8c0.5,7.5,0.3,15-0.1,22.5c-0.1,1.7-0.9,2.4-2.4,2.5
		c-1,0.1-2,0.1-3,0.1C126.7,500.5,114.1,500.5,101.5,500.5C101.5,500.5,101.5,500.5,101.5,500.5z M101.4,495.3c5.7,0,11.5,0,17.2,0
		c1.5,0,2-0.5,2-1.9c0-3.8,0.1-7.6,0-11.4c0-1.8,0.7-2.6,2.6-2.7c2-0.1,2.6,0.8,2.5,2.6c0,3.8,0.1,7.6,0,11.4c0,1.3,0.5,2,1.8,2
		c3.6,0,7.2,0,10.8,0.1c0.9,0,1.2-0.3,1.2-1.2c0.1-6.7,0.3-13.4-0.2-20.1c-0.5-5.6-5.6-10.6-11.3-11.2c-4.4-0.5-8.9-0.1-13.4-0.2
		c-1.2,0-2,0.6-2.8,1.4c-2.6,2.6-5.3,5.3-8,7.8c-2.3,2.1-2.9,2.1-5.2-0.1c-2.6-2.5-5.2-5.2-7.8-7.7c-0.9-0.9-2-1.6-3.3-1.5
		c-3.7,0.1-7.3,0-11,0.2c-8,0.4-13.3,6-13.3,14c0,5.6,0.1,11.2,0.1,16.8c0,1.4,0.5,1.9,1.9,1.9c3.4-0.1,6.8,0,10.2,0.1
		c1.2,0,1.5-0.5,1.5-1.5c0-3.5,0.1-7.1,0.1-10.6c0-0.9,0-1.9,0.4-2.8c0.7-1.9,2.4-0.9,3.6-1c1.2-0.1,1.1,0.8,1.1,1.6
		c0.1,3.9,0.3,7.9,0.1,11.8c-0.1,2.2,0.7,2.6,2.6,2.5C90.4,495.3,95.9,495.3,101.4,495.3z"/>
        <path d="M125.7,427.6c0,3.8,0.1,7.6,0,11.4c-0.2,6.1-5.1,12-11.1,12.5c-8.6,0.7-17.2,0.7-25.7,0c-6.8-0.6-11.6-6.1-11.7-13
		c-0.1-7.5-0.1-15,0-22.5c0.1-6.2,5.1-12.1,11.2-12.7c8.5-0.9,17-0.9,25.5,0c7.1,0.7,11.8,6.3,12,13.4
		C125.9,420.3,125.8,423.9,125.7,427.6C125.8,427.6,125.8,427.6,125.7,427.6z M101,446.3C101,446.3,101,446.3,101,446.3
		c3.7,0,7.3,0,11,0c4.5,0,8.2-3,8.4-7.4c0.4-7.7,0.2-15.4-0.1-23.1c-0.2-4.6-4.6-7.7-8.6-7.6c-6.6,0.1-13.2,0.1-19.8,0.1
		c-0.9,0-1.9,0.1-2.8,0.3c-4,0.7-6.4,3.3-6.6,7.3c-0.2,2.5-0.3,5.1-0.2,7.6c0.1,5.4-0.5,10.9,0.2,16.3c0.5,3.6,3.6,6.4,7.2,6.5
		C93.5,446.4,97.3,446.3,101,446.3z"/>
        <path d="M98.7,390.5c0-0.4,0-0.8,0-1.2c0.2-2-0.3-3.2-2.4-4.3c-7.6-4.2-7.5-14.5-0.2-18.8c5.4-3.1,12.5-0.5,15.3,5.6
		c2.4,5.1-0.5,11.7-6,13.7c-1.1,0.4-1.5,1-1.5,2.2c0,2.5-0.2,4.9-0.2,7.4c-0.1,1.7-1.1,2-2.5,2.1c-1.5,0-2.2-0.6-2.3-2.1
		c-0.1-1.5-0.2-3-0.4-4.6C98.7,390.5,98.7,390.5,98.7,390.5z M101.9,370.4c-3.4,0-5.8,2.2-5.9,5.4c0,2.9,2.3,5.3,5.2,5.4
		c3.2,0.1,5.3-2.2,5.4-5.6C106.7,372.6,104.7,370.5,101.9,370.4z"/>
        <path d="M65.1,429.8c-0.2,0-0.4,0-0.6,0c-2.5-0.2-4.3,0-5.7,3c-2,4.4-7.5,6.2-12,4.8c-5-1.5-7.9-5.8-7.7-11.2
		c0.1-4.3,3.7-8.5,8.3-9.6c4.7-1.1,10.1,1.6,12.3,6.5c0.5,1.2,1.2,1.6,2.4,1.5c2.3,0,4.7,0,7,0.1c1.6,0,2.2,0.8,2.1,2.4
		c-0.1,1.5-0.5,2.6-2.3,2.6C67.6,429.8,66.3,429.8,65.1,429.8C65.1,429.8,65.1,429.8,65.1,429.8z M55.2,427.6c0-3.4-2.2-5.8-5.5-5.7
		c-2.6,0-5.2,2.7-5.3,5.3c0,3.4,2.1,5.5,5.4,5.5C52.7,432.7,55.2,430.3,55.2,427.6z"/>
        <path d="M62.4,378.1c7.6,0,13,7,10.8,13.7c-0.7,2.1-0.4,3.5,1.2,4.9c1.3,1.2,2.5,2.6,3.7,3.9c1,1.1,1.3,2.2,0.1,3.3
		c-1.1,1-2.4,1.2-3.6,0.2c-1.6-1.4-3.1-2.9-4.6-4.5c-0.9-1-1.7-1.3-3.1-0.7c-4.1,1.8-8.5,0.7-11.7-2.6c-2.9-3-3.9-8-2-11.9
		C55.2,380.3,58.5,378.2,62.4,378.1z M63,383.5c-2.9-0.1-5.5,2.5-5.6,5.6c-0.1,2.9,2.4,5.3,5.7,5.4c2.6,0.1,5.2-2.4,5.3-5.1
		C68.5,385.8,66.4,383.6,63,383.5z"/>
        <path d="M150.6,388.9c0,7.1-6.2,11.9-13.1,10.3c-0.5-0.1-1.1-0.2-1.5-0.4c-1.4-0.6-2.4-0.2-3.4,1c-1.3,1.6-2.9,2.9-4.3,4.4
		c-1.1,1.2-2.1,0.8-3.1-0.1c-1-0.9-1.6-2-0.7-3.3c1.1-1.6,2.5-2.9,4.1-4.1c1.7-1.3,1.9-2.7,1.4-4.7c-2.3-7.9,3.7-14.7,11.8-13.8
		C146.5,378.9,150.6,383.7,150.6,388.9z M139.5,394.4c3.3,0,5.8-2.3,5.9-5.2c0-3.2-2.3-5.7-5.4-5.7c-3.4,0-5.5,2.3-5.5,5.9
		C134.5,392.2,136.7,394.4,139.5,394.4z"/>
        <path d="M137,429.8c-0.9,0-1.9,0-2.8,0c-1.2,0-2.6,0.5-2.5-1.7c0.1-2.5,0.4-3.3,2.5-3.4c2.1-0.1,4.3,0,6.4,0c1.3,0,2-0.3,2.6-1.6
		c2-4.6,7.2-7.3,11.9-6.3c5.2,1.1,8.6,5.2,8.7,10.5c0.1,4.4-2.7,8.4-7.1,10.1c-4,1.5-8.8,0.3-11.6-3c-0.2-0.2-0.4-0.4-0.5-0.6
		C143.2,430.1,140.5,429.1,137,429.8z M153.3,432.8c2.7,0,5.3-2.5,5.3-5.4c0.1-2.9-2.5-5.5-5.4-5.6c-3-0.1-5.7,2.5-5.8,5.4
		C147.4,430.2,150.1,432.8,153.3,432.8z"/>
        <path d="M101,439.4c-2.7,0.3-5.3-0.6-7.8-2.1c-0.6-0.4-1.2-0.8-1.7-1.4c-0.9-1.1-1.2-2.5-0.2-3.7c1-1.2,2.4-1,3.4-0.2
		c2.7,2.1,5.8,2.1,8.9,1.8c1.4-0.1,2.7-0.5,3.9-1.4c1.3-1.1,3.2-0.9,4.1,0.3c1.1,1.5,0.2,2.7-0.9,3.6
		C108,438.7,104.7,439.6,101,439.4z"/>
        <path d="M112.4,420.5c-0.1,0.7-0.1,1.4-0.3,2.1c-0.3,1.1-1,1.8-2.2,2c-1.2,0.2-1.9-0.4-2.4-1.3c-1.1-1.7-0.9-3.6-0.2-5.4
		c0.4-1.1,1.5-1.4,2.5-1.2c1.2,0.2,2,1,2.4,2.1C112.3,419.3,112.3,419.9,112.4,420.5z"/>
        <path d="M95.9,420.8c-0.1,0.6-0.1,1.3-0.3,2c-0.2,0.9-0.9,1.4-1.9,1.4c-1.1,0.1-2-0.1-2.5-1.1c-0.7-1.5-0.8-3.1-0.2-4.6
		c0.4-1.1,1.1-2,2.5-1.8c1.3,0.1,2,1,2.2,2.2C95.8,419.4,95.8,420.1,95.9,420.8z"/>
</g>
    <g>
	<path d="M365,58.5c13,0,26,0,39,0c1.7,0,3.5,0,5.2,0.3c7,1.2,10.9,6.2,11.1,14.2c0.1,8.8,0.1,17.5,0.1,26.3c0,16.4,0,32.8,0,49.2
		c0,3.1-0.2,6.2-0.5,9.3c-0.6,6.5-6.4,11-14,11c-10.9,0-21.8,0-32.7,0c-15.6,0-31.2,0-46.8,0c-2.4,0-4.8-0.2-7.1-0.8
		c-5.1-1.4-8.5-5.2-9.1-10.5c-0.6-5.2-0.2-10.3-0.2-15.5c0-23.2,0-46.3,0-69.5c0-8.5,5.1-13.8,13.6-13.9
		C337.3,58.5,351.2,58.5,365,58.5C365,58.5,365,58.5,365,58.5z M413.8,113.7C413.8,113.7,413.8,113.7,413.8,113.7
		c0-13.9,0-27.7,0-41.6c0-0.9,0-1.9-0.3-2.8c-1-3.2-3.3-4.6-7.7-4.6c-10.4,0-20.9,0.1-31.3,0.1c-16.6,0-33.1,0-49.7,0
		c-6.4,0-8.7,2.2-8.7,8.5c0,27.1,0,54.1,0,81.2c0,5.8,2.3,7.9,8,7.9c9.1,0,18.2,0,27.2,0c18.5,0,36.9,0,55.4,0c4.7,0,7-2.5,7-7.1
		C413.8,141.4,413.8,127.5,413.8,113.7z"/>
        <path d="M355.3,41.1c0,2.8,0.1,5.3-0.4,7.7c-0.3,1.8-1.3,2.9-3.2,2.8c-1.8,0-2.3-1.2-2.5-2.8c-0.6-4.5-0.3-9-0.3-13.5
		c0-1.4,0.4-2.6,2.3-2.6c1.8,0,3.3,0,3.9,2.2C355.6,37.1,355.2,39.3,355.3,41.1z"/>
        <path d="M381.1,42.1c0,2,0.1,4,0,5.9c-0.1,1.8-0.6,3.3-2.9,3.3c-2.1,0.1-3-1-3.3-2.9c-0.5-4.3-0.2-8.7-0.2-13.1
		c0-1.9,1.6-2.7,3.5-2.8c1.9-0.1,2.6,1.1,2.7,2.6C381.1,37.5,381,39.8,381.1,42.1C381.1,42.1,381.1,42.1,381.1,42.1z"/>
        <path d="M381.1,185.1c0,2.1,0,4.1,0,6.2c0,2.2-1.3,3.1-3.3,3.2c-2,0.1-2.5-1.3-2.7-2.9c-0.6-4.1-0.4-8.3-0.4-12.4
		c0-1.7,0.7-3.3,2.8-3.6c1.9-0.2,3.4,0.4,3.5,2.6C381.1,180.5,381,182.8,381.1,185.1C381.1,185.1,381.1,185.1,381.1,185.1z"/>
        <path d="M355.3,185.1c0,1.6,0,3.2,0,4.8c0,1.2-0.3,2.4-1,3.4c-0.9,1.2-2.2,1.4-3.6,1.2c-1.4-0.3-1.5-1.3-1.6-2.3
		c-0.5-4.4-0.4-8.9-0.2-13.4c0.1-1.7,0.8-3.1,2.9-3.1c2-0.1,2.8,1.1,3.2,2.8C355.5,180.6,355.2,182.9,355.3,185.1z"/>
        <path d="M437.6,103.8c-3.5-0.1-6,0.1-8.4-0.3c-2-0.3-2-1.7-2.2-3.1c-0.2-1.6,0.8-2.3,2.2-2.5c4.8-0.8,9.7-0.5,14.5-0.1
		c1.7,0.2,2.3,1.3,2.2,2.8c-0.1,1.6-0.6,2.8-2.4,3C441.1,103.6,438.8,103.7,437.6,103.8z"/>
        <path d="M294.1,103.8c-3-0.1-5.1,0.1-7.3-0.3c-1.6-0.3-2.9-1.1-3-2.9c-0.1-1.9,1.2-2.7,2.8-2.9c4.7-0.6,9.3-0.6,14,0.1
		c1.6,0.3,2.5,1.3,2.3,3.1c-0.2,1.6-0.9,2.5-2.6,2.5C298,103.6,295.6,103.7,294.1,103.8z"/>
        <path d="M293.5,149.4c2.6,0.1,4.9-0.1,7.3,0.4c1.5,0.3,2.1,1.2,2.1,2.7c0,1.5-0.5,2.5-2,2.8c-4.8,1-9.6,0.7-14.5,0.4
		c-2.3-0.1-2-2.3-2.2-3.9c-0.2-1.5,0.9-1.8,2.1-2C288.7,149.3,291.2,149.5,293.5,149.4z"/>
        <path d="M436.8,129.7c-2.2,0-4.4,0-6.7,0c-2.1,0-3.1-1.3-3.2-3.1c-0.1-1.8,1.3-2.8,2.9-2.8c4.7-0.1,9.4-0.1,14,0c1.9,0,2,1.6,2,2.9
		c0,1.5-0.1,3-2.2,3C441.4,129.6,439.1,129.6,436.8,129.7C436.8,129.6,436.8,129.6,436.8,129.7z"/>
        <path d="M329,185.1c0,2.2,0.1,4.5,0,6.7c-0.1,1.5-0.6,2.9-2.5,2.8c-1.8-0.1-3.3-0.8-3.4-2.9c-0.1-4.5-0.1-9.1,0-13.6
		c0-2.1,1.7-2.2,3.2-2.3c1.7-0.2,2.6,0.6,2.7,2.2C329.1,180.3,329,182.7,329,185.1C329,185.1,329,185.1,329,185.1z"/>
        <path d="M436.8,77.6c-2.4,0-4.8,0.1-7.1,0c-1.7-0.1-2.7-1-2.5-2.8c0.2-1.6,0.2-3.4,2.7-3.3c4.3,0.1,8.6,0.1,12.8,0.1
		c2.3,0,3.1,1.1,3,3.2c-0.1,2.1-0.9,3-3,2.8C440.7,77.4,438.7,77.6,436.8,77.6C436.8,77.6,436.8,77.6,436.8,77.6z"/>
        <path d="M293.5,77.5c-2.2,0-4.5-0.1-6.7,0c-1.7,0.1-2.6-0.7-2.6-2.3c0-1.6,0-3.5,2.2-3.6c4.7-0.2,9.4-0.2,14,0.2
		c2.2,0.2,2.4,1.7,2.3,3.4c-0.1,1.7-1.1,2.5-2.8,2.4C297.8,77.5,295.6,77.6,293.5,77.5z"/>
        <path d="M436.5,155.6c-2.2,0-4.5,0-6.7,0c-1.9,0-2.5-1.3-2.7-3c-0.2-1.7,0.6-2.7,2.4-2.9c4.7-0.4,9.4-0.4,14,0
		c2.1,0.2,2.3,1.5,2.3,3.2c0,1.9-0.9,2.5-2.6,2.5c-2.2,0-4.5,0-6.7,0C436.5,155.5,436.5,155.5,436.5,155.6z"/>
        <path d="M323,41.7c0-2,0.1-4,0-6c-0.1-2.1,1-2.8,2.9-2.9c1.8-0.1,3,0.7,3,2.6c0.1,4.5,0.1,8.9,0,13.4c0,1.8-1,2.7-2.9,2.6
		c-2,0-2.8-1.1-2.9-2.8C323,46.3,323.1,44,323,41.7C323.1,41.7,323.1,41.7,323,41.7z"/>
        <path d="M407,42.3c0,2.1,0,4.1,0,6.2c0,1.8-0.8,2.9-2.7,2.9c-1.7,0-3.1-0.5-3.2-2.4c-0.3-4.6-0.4-9.2,0-13.8c0.2-2,1.3-2.5,3.1-2.4
		c1.8,0.1,2.8,1,2.8,2.9C407,37.9,407,40.1,407,42.3C407,42.3,407,42.3,407,42.3z"/>
        <path d="M407,184.9c0,2.1,0,4.1,0,6.2c0,1.8-0.7,3.4-2.7,3.5c-2.1,0.1-2.9-1.4-3.1-3.2c-0.3-4.4-0.2-8.9,0-13.3
		c0.1-1.9,1.2-2.4,2.8-2.3c1.6,0.1,3,0.6,3,2.6C407,180.6,407,182.7,407,184.9C407,184.9,407,184.9,407,184.9z"/>
        <path d="M293.6,129.5c-2.3,0-4.6,0.1-6.9,0c-1.4-0.1-2.4-0.7-2.5-2.3c0-1.7,0.5-3.2,2.3-3.4c4.6-0.4,9.2-0.4,13.8,0.1
		c1.7,0.2,2.7,1.2,2.6,3.1c-0.1,1.8-1.3,2.5-2.9,2.6c-2.1,0.1-4.3,0-6.4,0C293.6,129.5,293.6,129.5,293.6,129.5z"/>
        <path d="M400.6,113.3c0.7,7-0.9,13.7-5,19.7c-5.5,7.9-13.1,12.4-22.8,12.9c-2.3,0.1-4.6-0.2-6.6-1.5c-0.8-0.5-1.6-0.6-2.5-0.1
		c-3.8,2.5-7.8,1.7-11.8,0.8c-12.7-2.9-21.8-14.2-22.5-27.5c-0.3-6.6-0.4-13.3,2.7-19.4c5.4-10.6,14-16.3,26-16.8
		c0.9,0,2.1-0.2,2.8,0.3c2.9,1.9,5.5,1.2,8.4,0c3.3-1.4,6.8-0.3,10,0.7c12.8,3.9,20.8,14.5,21.2,27.8
		C400.6,111.1,400.6,112.1,400.6,113.3z M361.7,121.7C361.8,121.7,361.8,121.7,361.7,121.7c0-4.8,0-9.5,0.1-14.3
		c0-1.8-0.4-2.3-2.3-2.2c-4,0.2-7.4-1.4-10-4.6c-1.2-1.5-0.2-2.7,0.6-3.8c0.9-1.2,1.9-1.2,3.1-0.3c1.1,0.8,2.2,1.6,3.4,2.2
		c2.6,1.4,4.8,0.3,5.1-2.6c0.1-1.5,0.1-3,0.1-4.5c-0.1-3.2-1-4-4.2-4c-9.9,0.1-19.4,8.1-21.3,18c-0.8,4.3-0.6,8.6-0.5,12.8
		c0.1,10.2,10.2,21.9,22.5,21.1c3-0.2,3.5-0.5,3.5-3.5C361.8,131.2,361.7,126.5,361.7,121.7z M394.3,113.5c0-1.4,0-2.7,0-4.1
		c-0.3-8.4-4.4-14.6-11.4-19c-3.7-2.3-7.8-3-12.1-2.6c-1.9,0.1-2.6,1.1-2.6,2.9c0,9.6,0,19.3-0.1,28.9c0,1.6,0.4,2.2,2.2,2.2
		c3.8-0.1,7.2,1.2,9.7,4.2c1.1,1.3,1.3,3,0,4.3c-1.2,1.2-2.7,1.2-4.1,0c-1.3-1.1-2.8-1.8-4.5-1.9c-1.9-0.1-3.3,0.6-3.2,2.9
		c0.1,1.7,0,3.5,0.1,5.2c0.1,1.8,1,2.8,3,3c6.6,0.5,12-1.9,16.5-6.4C393.2,127.6,394.8,120.9,394.3,113.5z"/>
        <path d="M342.4,113.9c7.1,0.2,12.6,5.6,12.6,12c0,1.7-0.4,3.3-2.4,3.5c-2,0.2-3.1-0.8-3.4-2.8c-0.6-3.9-2.7-6.3-6.8-6.8
		c-0.6-0.1-1.2-0.3-1.8-0.7c-1.2-0.8-1.5-1.9-1.1-3.3C339.9,114.2,341,113.7,342.4,113.9z"/>
        <path d="M374.9,101.1c0.3-1.4,0.3-3.2,2.6-3.4c2.2-0.2,3.3,1,3.5,3c0.4,4,2.6,6.1,6.5,6.7c2,0.3,3.2,1.3,3.1,3.5
		c-0.1,2.5-2.1,2.4-3.6,2.5C381.3,113.6,374.8,107.1,374.9,101.1z"/>
</g>
    <g>
	<path d="M1657.1,359c0,2.6,0.1,5.2,0,7.8c0,1.3,0.3,2,1.5,2.6c7.6,4,9.8,9.4,7,17.4c-0.4,1.2-0.5,2.1,0.4,3
		c7.4,7.9,14.8,15.8,22.1,23.7c1.3,1.4,2.4,1.8,4.4,1.1c6.5-2.2,14,1.6,16,8c2.2,6.7-1.6,14-8.3,15.9c-4.8,1.3-9.6,0.7-13-3.2
		c-3.7-4.1-4.9-8.9-2.2-14c0.8-1.5,0.1-2.5-0.9-3.6c-6-6.8-12.2-13.4-18.5-19.9c-1.3-1.3-2.5-2.7-3.8-4c-0.9-0.9-2-1.4-3.3-0.9
		c-1.2,0.5-1.4,1.7-1.4,2.8c-0.1,5.7,0,11.4-0.1,17.1c0,1.5,1.1,1.6,2,2c6.1,2.8,9.2,9.3,7.3,15.3c-2.3,7.1-10.2,10.9-17.1,7.9
		c-1.7-0.7-2.8-0.6-4,0.6c-3.2,3.1-6.4,6.2-9.7,9.2c-1.1,1-1.1,1.9,0,3c3.2,2.9,6.4,5.7,9.5,8.7c1.7,1.6,3.3,0.9,5.1,0.3
		c7.9-2.6,16.1,2.9,16.6,11.2c0.4,7.2-5.2,13.3-12.2,13.4c-7.5,0.1-13.4-6-13-13.4c0-0.3,0-0.7,0.1-0.9c1.6-4-0.2-6.7-3.3-9.1
		c-2.5-2-4.7-4.2-7-6.5c-1.1-1-2-1-3.1,0c-3.5,3.3-7,6.5-10.5,9.7c-1.1,1-0.8,2-0.5,3.2c2,7-0.8,13.4-6.9,15.8
		c-5.1,2.1-9.8,1.3-13.8-2.3c-4-3.6-4.8-8.3-3.2-13.3c0.6-1.9,0.3-3.3-1.1-4.7c-8-8-15.9-16.1-24.1-23.8c-1.2-1.2-2.4-1.5-4.1-0.9
		c-6.8,2.5-13.3-0.5-16.3-7.3c-2.5-5.6,0.4-12.9,6.1-15.8c5.8-3,13.1-0.7,16.6,5.1c0.3,0.5,0.6,1.1,0.9,1.7c0.5,1.2,1.3,1.6,2.6,1.6
		c5.5-0.1,11,0,16.5,0c1.3,0,2.5-0.2,3-1.5c0.5-1.3,0.3-2.5-0.7-3.5c-2.9-2.9-5.8-5.9-8.8-8.8c-5-5-10.1-9.9-15.1-14.9
		c-1.7-1.7-3.3-2.2-5.7-1.5c-7.8,2.2-14.9-2.4-16.2-10.1c-1.1-6.6,3.2-12.9,9.7-14.2c6.9-1.4,13.3,2.6,15.1,9.3
		c0.7,2.7,0.3,5.4-0.5,7.9c-0.5,1.6-0.1,2.7,1,3.8c7.6,7.5,15.2,15.1,22.9,22.7c0.6,0.6,1.1,1.1,1.8,1.6c2.3,1.8,4.9,1.1,5-1.8
		c0.3-5.9,0.2-11.7,0.2-17.6c0-1.4-1.4-1.8-2.4-2.4c-5.8-3.1-8.3-8.2-6.9-14.2c1.7-7.3,9.3-11.4,16.8-8.8c2.4,0.8,3.8,0.6,5.5-1.3
		c2.5-2.7,5.3-5,8-7.5c2-1.8,2-2.2,0-4.1c-2.9-2.6-5.8-5.2-8.6-7.9c-1.4-1.4-2.7-1.7-4.7-1c-7.6,2.7-15.1-1.2-17-8.5
		c-1.3-5.2,0.9-10.9,5.4-13.7c4.5-2.9,10.4-2.7,14.5,0.6c4.6,3.6,6.2,8.9,4.2,14.2c-0.6,1.6-0.2,2.7,1,3.7c3.4,3.1,6.9,6.2,10.2,9.3
		c1.1,1,1.8,1.1,2.9,0c3.3-3.2,6.7-6.4,10.2-9.4c1.7-1.5,0.8-3.1,0.5-4.6c-0.8-4.2-0.2-8,2.6-11.4c3.8-4.6,10.6-5.9,15.8-2.9
		c5.4,3.1,8,9.6,5.8,15.1c-1,2.5-0.5,3.9,1.3,5.8c6.9,7.2,13.6,14.5,20.3,21.8c1.4,1.6,2.7,2.2,5,1.7c8-1.7,13.7,1.3,16,7.9
		c1.7,4.9,0.2,10.3-3.7,13.6c-3.9,3.3-10.2,3.9-14.8,1.4c-4.3-2.3-6.8-7.4-6.2-12.5c0.1-0.5,0.1-1,0.4-1.4c2-3.4,0.5-5.9-1.9-8.4
		c-6.6-6.9-13.2-13.8-19.7-20.7c-1.1-1.1-2.4-2-4-1.4c-1.6,0.6-1.4,2.1-1.4,3.5C1657.1,353.9,1657.1,356.5,1657.1,359z
		 M1629.3,384.3C1629.3,384.3,1629.3,384.3,1629.3,384.3c-3.1,0-6.2-0.1-9.3,0c-1.7,0-2.9,0.5-3.6,2.4c-0.9,3-3.3,4.8-6.1,6
		c-1.6,0.7-2.2,1.5-2.2,3.2c0.1,5.2,0,10.3,0,15.5c0,1.5-0.3,3,1.6,3.8c1.9,0.8,3.4,0.3,4.8-1.1c2.1-2,4.2-4.1,6.4-6.1
		c6.6-6.1,13.5-11.9,19.8-18.3c1-1,2.2-2.1,1.5-3.7c-0.7-1.5-2.2-1.5-3.5-1.5C1635.6,384.3,1632.4,384.3,1629.3,384.3z
		 M1629.8,423.6c3.1,0,6.2-0.1,9.3,0c1.6,0.1,2.6-0.4,3.2-2c1.1-3,3.2-5.3,6.3-6.4c1.8-0.6,2.4-1.8,2.4-3.6c-0.1-5,0-10,0-15
		c0-1.5-0.1-2.9-1.8-3.6c-1.6-0.6-3.1-0.8-4.5,0.7c-1.4,1.5-3,2.8-4.5,4.2c-7.3,6.8-14.6,13.7-22,20.5c-1,0.9-2.1,1.9-1.5,3.5
		c0.7,1.6,2.2,1.6,3.6,1.6C1623.6,423.5,1626.7,423.6,1629.8,423.6z M1602.2,449.2C1602.2,449.2,1602.2,449.2,1602.2,449.2
		c0-2.7,0.1-5.4,0-8.1c0-1.2-0.3-2.2-1.7-2.7c-3.1-1.1-5.3-3.3-6.5-6.2c-0.9-2.1-2.4-2.8-4.5-2.6c-5,0.5-10,0.2-15.1,0.2
		c-1.1,0-2.5-0.3-3.1,1.2c-0.6,1.5-0.4,3,0.8,4.2c8.3,8.1,16.6,16.3,24.8,24.4c1,1,2.1,1.3,3.5,0.8c1.5-0.5,1.8-1.7,1.8-3
		C1602.2,454.6,1602.2,451.9,1602.2,449.2z M1629.8,378.3C1629.8,378.3,1629.8,378.3,1629.8,378.3c3.4,0,6.7,0.1,10.1,0
		c2.3-0.1,3.1-1.5,2.1-3.5c-0.3-0.7-0.8-1.4-1.4-1.9c-3-2.9-6.1-5.6-9-8.5c-1.3-1.2-2.4-1.2-3.7,0c-3.2,3-6.4,5.9-9.6,8.9
		c-0.9,0.8-2.1,1.7-1.6,3.2c0.6,1.6,2.1,1.8,3.6,1.8C1623.4,378.4,1626.6,378.3,1629.8,378.3z M1608.3,448.9c0,2.8,0,5.5,0,8.3
		c0,1.4,0.5,2.7,2,3.2c1.4,0.5,2.6,0.3,3.7-0.7c3.1-2.9,6.2-5.7,9.3-8.5c1.3-1.2,1.3-2.5,0-3.7c-3.2-3-6.4-5.9-9.6-8.9
		c-1.1-1-2.5-1-3.8-0.4c-1.3,0.5-1.7,1.6-1.7,2.9C1608.2,443.7,1608.3,446.3,1608.3,448.9z M1629.6,429.8
		C1629.6,429.8,1629.6,429.8,1629.6,429.8c-3.4,0-6.9,0-10.3,0c-1,0-2.1,0-2.5,1.1c-0.4,1.1-0.1,2.2,0.7,3.1c3.5,3.3,7,6.7,10.6,10
		c0.8,0.8,1.8,1,2.8,0.1c3.5-3.3,7-6.5,10.4-9.8c0.9-0.9,1.5-2,0.9-3.2c-0.5-1.2-1.8-1.2-2.9-1.2
		C1636.2,429.8,1632.9,429.8,1629.6,429.8z M1651.1,358.1C1651.1,358.1,1651.1,358.1,1651.1,358.1c0-2.2,0-4.4,0-6.6
		c0-1.6,0-2.9-1.8-3.7c-1.8-0.8-3.1-0.4-4.5,0.8c-3.4,3.1-6.5,6.6-10.2,9.3c-1.2,0.9-0.3,1.4,0.3,2c3.3,2.9,6.5,5.8,9.8,8.7
		c1.2,1.1,2.5,2.1,4.2,1.3c1.7-0.8,2-2.4,2.1-4C1651.2,363.4,1651.1,360.8,1651.1,358.1z M1559.5,374.7c-3.7,0-6.7,3-6.7,6.9
		c0,3.3,3,6.4,6.4,6.5c4.1,0,7-2.8,7.1-7.1C1566.4,377.7,1563.2,374.8,1559.5,374.7z M1553,426.6c0,3.5,2.9,6.8,6.2,6.8
		c3.7,0,7-3,7.1-6.4c0.1-4.1-2.7-7.1-6.7-7.1C1556,419.9,1553.1,422.8,1553,426.6z M1605.3,329.5c-3.6-0.1-6.8,2.8-6.9,6.1
		c-0.1,3.7,2.8,7,6.2,7.1c4.2,0.1,7-2.5,7.2-6.6C1611.9,332.2,1609.3,329.6,1605.3,329.5z M1654.1,387.9c3.7,0,6.6-2.7,6.6-6.2
		c0-4.1-2.6-6.9-6.5-6.9c-3.9,0-7,2.9-7.1,6.8C1647,384.8,1650.5,387.9,1654.1,387.9z M1660.7,471.9c0-3.7-2.8-6.6-6.6-6.7
		c-3.5-0.1-6.7,3.1-6.7,6.7c0,4.2,2.7,6.8,7.2,6.8C1657.8,478.6,1660.7,475.4,1660.7,471.9z M1654.2,433.1c3.5,0.1,6.4-2.7,6.6-6.4
		c0.1-3.6-2.6-6.7-5.9-6.8c-4.3-0.1-7.3,2.5-7.4,6.3C1647.3,430.4,1649.7,432.9,1654.2,433.1z M1611.8,381.5c0-3.9-2.8-6.7-6.7-6.8
		c-3.6,0-6.6,2.9-6.6,6.4c0,3.8,3.2,7.1,6.6,7.1C1608.7,388.2,1611.8,385,1611.8,381.5z M1702.9,426.9c0.1-3.4-1.7-7-7.2-6.8
		c-3,0.1-6.1,3.2-6,6.2c0.1,4,3.1,7.2,6.8,7.1C1700.3,433.4,1703.4,429.9,1702.9,426.9z M1654.2,342.7c3.9,0,6.5-2.8,6.5-6.8
		c0-3.4-2.9-6.3-6.2-6.3c-4.1,0-7.1,2.8-7.1,6.7C1647.5,340.1,1650.2,342.7,1654.2,342.7z M1702.9,381.2c0-3.9-2.8-6.5-6.7-6.4
		c-3.3,0-6.6,3-6.5,6c0.2,4,2.2,7.3,6.8,7.2C1700.4,387.8,1702.9,385.2,1702.9,381.2z M1611.8,426.7c0.1-3.6-3-6.5-7-6.6
		c-3.4-0.1-6.3,2.9-6.3,6.5c0,3.8,2.8,6.8,6.4,6.9C1608.6,433.6,1611.8,430.5,1611.8,426.7z M1598.6,472.1c0,3.5,3.1,6.7,6.6,6.7
		c3.3,0,6.6-3.3,6.6-6.6c0-3.7-3.2-7-6.7-7C1601.5,465.3,1598.6,468.3,1598.6,472.1z"/>
</g>
    <g>
	<path d="M1042.3,250.9c-15.3,0-30.6-0.2-46,0.1c-9.7,0.2-18.4-6.7-20.1-16.3c-0.1-0.8-0.2-1.6-0.2-2.4c0-31.5,0-63,0-94.4
		c0-8.9,6.2-16.5,14.8-18.5c1.6-0.4,3.2-0.6,4.8-0.6c30.8,0,61.5,0,92.3,0c9.6,0,17.2,5.7,19.7,14.5c0.5,1.7,0.7,3.4,0.7,5.2
		c0,31.1,0,62.2,0,93.2c0,10.3-8.6,19.1-18.9,19.2C1073.7,251,1058,250.9,1042.3,250.9z M1041.8,245.8
		C1041.8,245.8,1041.8,245.8,1041.8,245.8c15.7,0,31.3,0,47,0c4.5,0,8.5-1.4,11.5-5.1c2.4-2.9,3.1-6.3,3.1-9.9c0-30.6,0-61.2,0-91.8
		c0-1.8-0.2-3.5-0.7-5.2c-1.6-5.1-6.5-10.3-15.1-10.2c-30.4,0.2-60.7,0.1-91.1,0.1c-2.2,0-4.5,0.2-6.6,1.1
		c-6.3,2.8-8.8,7.9-8.8,14.5c0,30.7,0,61.5,0,92.2c0,8.1,6.2,14.3,14.3,14.3C1010.9,245.8,1026.3,245.8,1041.8,245.8z"/>
        <path d="M1056.3,210.4c0-8.3,0-16.7,0-25c0-1.3-0.3-2.5-1.3-3.5c-2.8-2.8-5.6-5.7-8.3-8.6c-1.3-1.5-2.7-1-4.1-0.4
		c-5.3,2.3-12.2-1.9-13.6-7.3c-1.1-4.4,0.7-9.6,4.2-11.9c4-2.6,9.5-2.3,13.1,0.7c3.5,2.9,4.7,8,2.9,12.3c-0.6,1.3-0.3,2.1,0.7,3.1
		c3,3,5.8,6,8.9,8.9c2,1.8,2.7,4,2.7,6.5c0,16.5,0,32.9,0,49.4c0,1-0.2,2-0.4,3c-0.2,1.3-0.9,2.1-2.3,2.1c-1.3-0.1-2.3-0.5-2.4-2.1
		c-0.2-1.8-0.3-3.6-0.3-5.5c0-7.2,0-14.5,0-21.7C1056.2,210.4,1056.3,210.4,1056.3,210.4z M1039.2,157c-3,0-5.7,2.8-5.6,5.8
		c0.1,2.9,3,5.7,5.9,5.7c2.8,0,6-2.9,6-5.3C1045.5,159.9,1042.5,157,1039.2,157z"/>
        <path d="M1000.9,206.8c0-9.2,0-18.4,0-27.6c0-0.5-0.1-1.1,0-1.6c0.7-2.9-0.6-4.5-3-5.9c-3.8-2.2-5.8-6.6-5.1-10.3
		c0.9-4.6,3.4-7.9,8.2-9.1c5.2-1.3,10.4,1.3,12.4,6.1c2.1,5.1,0.6,11-4.2,13.4c-3.1,1.5-3.3,3.4-3.1,6.4c0.5,7.8,0.2,15.6,0.2,23.3
		c0,10.8,0,21.5,0,32.3c0,1.3-0.2,2.6-0.4,3.8c-0.2,1.5-1.2,2-2.5,2.1c-1.5,0-2.2-0.7-2.3-2.2c0-0.7-0.2-1.5-0.2-2.2
		C1000.9,225.8,1000.9,216.3,1000.9,206.8C1000.9,206.8,1000.9,206.8,1000.9,206.8z M998,162.6c0,3.6,2.2,5.8,5.6,5.8
		c2.9,0,5.7-2.6,5.7-5.2c-0.1-3.7-2.5-6.2-6-6.3C1000.6,156.9,997.9,159.7,998,162.6z"/>
        <path d="M1042.3,228.7c1.5-5.1-0.9-9.2-5.2-12.6c-1.6-1.2-2.9-2.8-4.3-4.3c-0.7-0.7-1.4-0.8-2.4-0.6c-2.4,0.5-4.8,1.3-7.4,0.6
		c-4.7-1.2-8.2-5.9-8-10.9c0.3-5.2,3.9-9.2,8.9-10.1c7.4-1.3,14.5,5.8,11.9,14c-0.7,2.1-0.1,3.4,1.4,4.8c3.2,3,6.3,6.2,9.4,9.2
		c0.6,0.6,0.8,1.4,0.8,2.2c0,5.4,0,10.8,0,16.2c0,1.4-0.5,2.1-2,2.2c-1.5,0.1-2.4-0.2-2.7-1.9
		C1042.1,234.8,1042.6,232.1,1042.3,228.7z M1031.4,201.3c0-2.8-2.7-5.7-5.3-5.7c-3.3,0.1-6.2,2.7-6.3,5.8c-0.1,3.1,2.8,5.9,6.1,5.9
		C1028.8,207.2,1031.4,204.4,1031.4,201.3z"/>
        <path d="M1058.4,139.3c0,2.2,0,4.5,0,6.7c0,1.2,0.3,2.3,1.2,3.1c3,2.9,6,5.8,9.1,8.7c0.9,0.8,1.6,1,2.9,0.5
		c5.1-2.3,11.6,0.4,13.7,5.6c2.3,5.5-0.3,12-5.6,14.1c-4.3,1.7-8.1,1-11.5-2.1c-3.4-3.2-4.4-7-2.8-11.4c0.6-1.7,0.4-2.7-1-3.9
		c-3.3-3-6.3-6.3-9.5-9.5c-0.8-0.9-1.2-1.9-1.2-3.1c0-5.3,0-10.6,0-15.8c0-1.5,0.6-2.2,2.2-2.2c1.6,0,2.4,0.5,2.4,2.2
		C1058.4,134.5,1058.4,136.9,1058.4,139.3C1058.4,139.3,1058.4,139.3,1058.4,139.3z M1075.3,173.9c3.5,0,5.9-2.2,5.9-5.5
		c0-3.3-2.3-5.8-5.5-5.8c-3.5,0-5.9,2.2-6,5.5C1069.7,171.6,1071.8,173.9,1075.3,173.9z"/>
        <path d="M1078.1,229.8c1.4-4,0-7.1-4.3-9.7c-3.7-2.2-4.4-7.5-2.7-11.8c1.6-4.2,5.4-6.6,10.2-6.5c4.3,0.1,8.2,2.8,9.6,6.8
		c1.9,5.2,0,10.5-4.9,13.1c-2.1,1.1-2.8,2.7-2.6,4.9c0.2,3.2,0.2,6.4,0.1,9.5c0,1.2,0,2.5-1.3,3.2c-1.6,0.8-3.4-0.2-3.7-2.2
		C1078.3,235,1078.3,232.7,1078.1,229.8z M1081.1,218.2c3.2,0,5.5-2.6,5.5-6.2c-0.1-3.1-2.5-5.4-5.7-5.3c-3,0.1-5.9,2.9-5.8,5.9
		C1075.1,215.6,1077.9,218.2,1081.1,218.2z"/>
</g>
    <g>
	<path d="M673.5,469c0-6.6-0.1-13.3,0-19.9c0-2.5,1-3,3.3-2.4c1.5,0.4,1.4,1.7,1.5,2.8c0.1,4.1,0.1,8.2,0,12.3
		c-0.1,1.8,0.6,2.2,2.2,2.1c9.8-0.2,18.1-5.6,21.3-14.2c3.5-9.1,1.3-18.9-5.8-25.3c-4.2-3.8-9.2-5.5-14.8-5.9
		c-1.2-0.1-2.4-0.3-2.6-1.8c-0.3-1.9,0.4-2.7,2.3-2.9c0.4,0,0.9-0.1,1.3,0c1.4,0.1,1.8-0.6,1.6-1.9c-1-6.8-4.1-12.3-9.3-16.9
		c-10.8-9.5-30.9-9.2-40.8,6.1c-0.7,1.1-0.6,1.9,0.1,3c2.4,3.3,4,7,4.2,11.2c0,0.9,0,1.7-0.6,2.4c-1.1,1.4-3.3,1.1-3.8-0.6
		c-0.4-1.1-0.5-2.3-0.7-3.4c-1.1-6.7-7.2-12.4-13.5-12.5c-8.6-0.1-14.7,4.4-16.1,12.1c-0.2,1.1-0.5,2.3-0.6,3.5
		c-0.1,1.4-0.7,1.8-2.1,1.8c-6.1,0-11.4,2.1-15.8,6.3c-11.8,11-7.7,31.7,7.4,37.4c3.8,1.4,7.7,1.6,11.6,1.5c1.3,0,1.8-0.5,1.8-1.9
		c-0.1-4.1,0-8.2,0-12.3c0-2.1,1-3.3,2.5-3.2c1.5,0.1,2.4,1.1,2.4,3.1c0.1,5.5,0.1,11.1,0.1,16.6c0,3.4,0.1,6.9,0,10.3
		c-0.1,1.8,0.5,2.9,2.2,3.8c6.6,3.8,7.2,12.2,1.3,16.6c-3.2,2.5-6.9,2.6-10.4,0.8c-3.6-1.7-5.5-4.7-5.5-8.7c0-4.1,2.1-7.2,5.8-8.9
		c1.4-0.7,1.9-1.4,1.8-2.9c-0.1-2.1-0.1-4.2,0-6.3c0-1.5-0.5-2.1-2-2.1c-4.1,0-8.2-0.1-12.2-1.6c-10.5-4-16.3-11.7-18.3-22.6
		c-2.1-11.5,6.5-27.5,22-30.1c2.2-0.4,3.2-1.4,3.8-3.5c2.5-8.7,9.6-14.3,18.6-14.8c3.6-0.2,6.9,0.9,10.1,2.4c1,0.5,1.6,0.5,2.4-0.6
		c11.9-17.5,36.2-19.3,50.7-3.8c4.8,5.2,7.5,11.5,7.9,18.6c0.1,1.6,0.6,2.3,2,2.8c5.8,2.1,10.3,5.9,13.5,11
		c10.1,16.4,1.4,37.6-18.1,41.7c-2,0.4-4,0.5-6,0.4c-1.2,0-1.7,0.3-1.7,1.6c0,4.9,0,9.8-0.1,14.7c0,1,0.3,1.5,1.4,1.4
		c0.5,0,1-0.1,1.5,0c1.8,0.3,2.8-0.3,3.6-2.1c2.2-4.5,6.9-6.3,11.9-4.8c3.9,1.1,6.9,5.6,6.7,10c-0.2,4.3-3.8,8.4-8,9.2
		c-4.7,0.9-9.2-1.4-11-5.7c-0.6-1.3-1.3-1.7-2.6-1.6c-2.1,0.1-4.2,0.3-6.3,0c-1.3-0.2-2-0.8-2-2.1c0-4.2,0-8.4-0.1-12.5
		C673.4,474.2,673.4,471.6,673.5,469C673.4,469,673.4,469,673.5,469z M608.2,493.9c2.8,0,4.9-1.9,4.9-4.5c0-2.9-2.2-5.4-4.8-5.4
		c-2.8-0.1-5.1,2.3-5.2,5.1C603,491.8,605.2,493.9,608.2,493.9z M693,494c3,0,5.2-2,5.3-4.9c0.1-2.8-2.3-5.2-5.1-5.1
		c-2.7,0-5,2.4-4.9,5.1C688.3,491.7,690.5,494,693,494z"/>
        <path d="M633.2,462.4c0,3.7,0.1,7.5,0,11.2c0,1.5,0.3,2.9,1,4.2c1.8,3.2,3.5,6.3,5.2,9.5c0.7,1.4,1.7,1.9,3.4,1.8
		c5.2-0.3,9.3,3.2,10.2,8.6c0.8,4.8-2.1,9.2-7.1,10.8c-4.4,1.4-9.8-0.9-11.8-5.2c-1.6-3.6-1.3-7.2,1.2-10.4c0.8-1,0.8-1.7,0.2-2.8
		c-2.2-3.8-4.3-7.6-6.4-11.4c-0.6-1.1-1-2.2-1-3.5c0-8.2,0-16.4,0-24.7c0-0.7,0.1-1.5,0.2-2.2c0.1-1,0.5-1.7,1.7-1.8
		c1.2-0.1,2.2,0.1,2.8,1.3c0.4,0.8,0.4,1.6,0.4,2.5c0,4,0,8,0,12C633.3,462.4,633.2,462.4,633.2,462.4z M642.6,504
		c3.5,0,5.6-2,5.7-5.1c0-2.6-2.3-4.9-4.9-4.9c-2.6,0-5.1,2.5-5.1,5.1C638.2,501.6,640.3,504,642.6,504z"/>
        <path d="M655.8,455.1c0,1.8,0,3.7,0,5.5c0,1,0.5,1.5,1.4,1.9c4.1,1.6,6.7,6.2,6,10.5c-0.7,4.4-4.8,8.1-9.3,8.3
		c-4.8,0.2-9-2.9-10.2-7.3c-1.1-4.1,0.7-9.8,6.3-11.8c0.9-0.3,0.9-0.9,0.9-1.5c0-3.9,0.1-7.8,0.1-11.8c0-1.4,0.2-2.3,2-2.3
		c1.6,0,2.7,0.3,2.7,2.2c-0.1,2.1,0,4.2,0,6.2C655.7,455.1,655.7,455.1,655.8,455.1z M648.4,471.5c0,3.5,2.1,4.8,5.2,4.9
		c2.6,0.1,4.9-2.5,4.8-4.9c-0.1-2.7-2.7-5-5.5-4.9C650.3,466.7,648.3,468.9,648.4,471.5z"/>
</g>
    <g>
	<path d="M604.1,308.6c-5.8,0-11.5,0-17.3,0c-1.5,0-3,0-4.5,0.1c-1.1,0.1-2.4,0.1-3.2,0.8c-1,0.8,0,2,0,3c0,1.8-0.5,3.5-1.6,4.9
		c-1.5,2-3.3,3.8-5.4,5.2c-2.5,1.7-5.1,1.7-7.7,0c-1.6-1-2.9-2.4-4.2-3.7c-3.8-3.8-7.4-7.8-11.4-11.4c-1.2-1.1-2.4-2.4-3.4-3.8
		c-2.3-3.1-2.3-6.3,0.1-9.3c1.3-1.7,2.9-3.1,4.5-4.5c2-1.6,4.1-2.1,6.5-1.2c1.4,0.5,2.3,0.3,3.4-0.8c4.6-4.6,9.3-9.1,14-13.6
		c2.8-2.7,6.2-4,10.2-4c11.1,0.1,22.3,0,33.4,0c5.6,0,9,2.5,10.1,7c0.4,1.5,0,3-0.2,4.5c-0.2,1.1,0.2,1.4,1.3,1.5
		c3.4,0.1,6.6-0.2,9.5-2.6c3.1-2.7,6.5-4.9,9.8-7.2c3.1-2.2,7-2.1,10,0.2c2.4,1.8,3.6,5.6,2.5,8.6c-0.5,1.5-1.3,2.7-2.5,3.7
		c-6.8,5.7-13.6,11.5-20.4,17.2c-4.6,3.9-9.9,5.8-16.1,5.6c-5.8-0.2-11.5-0.1-17.3-0.1C604.1,308.5,604.1,308.6,604.1,308.6z
		 M604.6,303.5c6.1,0,12.3-0.1,18.4,0c3.7,0,7-1,10-3.2c5.3-4,10.2-8.5,15.3-12.7c2.2-1.8,4.3-3.6,6.4-5.5c0.9-0.8,1.6-1.7,1.2-3
		c-0.4-1.3-1.3-2.1-2.6-2.5c-1.4-0.4-2.4,0.4-3.4,1.2c-3.7,2.7-7.5,5.5-11.2,8.3c-1.8,1.4-3.9,2-6.1,2c-7.3,0-14.5,0.1-21.8,0.1
		c-2,0-4-0.1-6-0.1c-1.6-0.1-2.4-0.8-2.4-2.5c0-1.7,1-2.3,2.6-2.3c3.8,0,7.6,0,11.5-0.1c1.1,0,2.1-0.1,3.2-0.3
		c2.9-0.6,4-3.3,2.4-5.8c-0.9-1.4-2.3-1.8-3.9-1.8c-11.5,0.3-23,0.1-34.6,0c-2.3,0-4.1,0.7-5.8,2.2c-5,4.3-9.4,9.2-14.2,13.7
		c-1.3,1.3-1.1,2,0.1,3.2c3.2,3.1,6.4,6.2,9.4,9.4c1.3,1.4,2.6,1.7,4.3,1.2c3.4-1.1,6.8-1.4,10.4-1.4
		C593.3,303.5,598.9,303.5,604.6,303.5z M568.4,318.9c0.2-0.1,0.7-0.1,1-0.4c1.6-1.3,3.1-2.7,4.4-4.3c0.9-1.1,0.6-2.1-0.4-3.2
		c-5.7-6-11.5-11.8-17.5-17.5c-0.9-0.8-1.7-0.9-2.7-0.2c-1.4,1.1-2.7,2.3-3.8,3.6c-1.4,1.7-1.4,2.8,0.2,4.4
		c5.4,5.5,10.8,10.9,16.2,16.4C566.5,318.4,567.1,318.9,568.4,318.9z"/>
        <path d="M611.2,212.2c-0.1,1.7,0.2,3.8-0.3,5.9c-0.8,3.1-2.6,5-5.7,5.8c-1.7,0.4-3.5,0.4-5.2,0.1c-3.9-0.7-6.4-3.5-6.6-7.7
		c-0.1-3.3-0.1-6.6,0-9.9c0.1-4,2.8-7,6.8-7.5c2.5-0.3,5-0.3,7.3,1.1c3.1,1.8,3.6,4.9,3.8,8.1C611.2,209.3,611.2,210.6,611.2,212.2z
		 M598.4,211.5c0,1.7,0,3.5,0,5.2c0,1.2,0.6,1.9,1.7,2.1c1,0.2,2,0.3,3,0.3c2.2-0.1,2.8-0.6,2.9-2.8c0.1-2.7,0.2-5.4,0.1-8
		c-0.1-4.1-1.5-5.2-5.6-4.4c-1.4,0.3-2.1,1-2.1,2.4C598.4,208,598.4,209.8,598.4,211.5z"/>
        <path d="M583,244.5c-0.1,2.3,0.3,4.6-0.3,6.9c-0.2,0.6-0.3,1.2-0.6,1.8c-1.6,3.3-6.1,4.9-10.9,3.9c-3.4-0.7-5.7-3.4-5.8-7.1
		c-0.2-3.6-0.5-7.3-0.1-10.9c0.6-4.8,3.2-7.1,8-7.1c1.5,0,3-0.3,4.4,0.3c3.4,1.4,5.3,3.9,5.2,7.6C582.9,241.5,583,243,583,244.5z
		 M570.2,245.3c0,0.7,0,1.8,0,2.8c0,3.8,0.6,4.3,4.3,4.3c0.3,0,0.6,0,0.9,0c1.6,0.1,2.2-0.8,2.4-2.3c0.3-3.6,0.2-7.1,0-10.7
		c0-1-0.5-1.9-1.5-2.1c-1.3-0.3-2.7-0.5-4.1-0.2c-1,0.2-1.6,0.7-1.8,1.8C570.2,240.9,570.3,242.9,570.2,245.3z"/>
        <path d="M622.6,244.9c0-1.7,0-3.4,0-5.1c0.1-4.5,3.4-7.7,7.9-7.8c1.4,0,2.8-0.2,4.3,0.3c3.2,1,5.2,3.2,5.5,6.4
		c0.4,4,0.4,8.1-0.1,12.2c-0.2,2.2-1.5,3.8-3.2,5c-2.9,2-8.4,1.9-11.2-0.2c-1.9-1.4-3-3.3-3-5.7c0-1.7,0-3.4,0-5.1
		C622.8,244.9,622.7,244.9,622.6,244.9z M635.3,244.7c0-1.8-0.1-3.5,0-5.3c0-1.1-0.5-1.6-1.3-2c-1.2-0.5-2.5-0.7-3.9-0.4
		c-1.7,0.4-2.5,1.2-2.5,2.9c0.1,3.1,0,6.3,0,9.4c0,2,0.9,2.8,2.8,2.9c0.7,0,1.4,0,2.1,0c2.1,0,2.6-0.4,2.7-2.6
		C635.4,248.1,635.3,246.4,635.3,244.7z"/>
        <path d="M576.6,211.5c0,3.1,0.1,6.3,0,9.4c0,1.2,0.1,2.6-1.5,3.1c-2,0.6-3.3-0.3-3.4-2.7c-0.1-5.1-0.1-10.1-0.1-15.2
		c0-1.6-0.1-2.6-2.1-2.5c-1.4,0.1-2.9-0.5-2.9-2.5c0-1.8,1.3-2.3,2.8-2.4c1.8-0.1,3.6,0,5.4,0c0.8,0,1.3,0.4,1.5,1.2
		c0.2,0.9,0.4,1.8,0.4,2.8C576.6,205.7,576.6,208.6,576.6,211.5C576.6,211.5,576.6,211.5,576.6,211.5z"/>
        <path d="M551,244.4c0,3,0,6,0,9c0,0.8-0.1,1.5-0.3,2.2c-0.3,1.2-1.1,1.7-2.2,1.8c-1,0.1-1.8-0.5-2.2-1.4c-0.4-0.7-0.4-1.6-0.4-2.4
		c0-4.8,0-9.6,0.1-14.5c0-1.4-0.2-2.4-2-2.4c-1,0-2.2,0-2.8-1.1c-0.9-1.6,0-3.2,1.9-3.5c1.9-0.2,3.7-0.3,5.6-0.1
		c1.6,0.2,2.4,1,2.4,2.8C551,238.1,551,241.2,551,244.4z"/>
        <path d="M607.3,244.6c0,3.1,0.1,6.1,0,9.2c0,1.2,0.2,2.6-1.3,3.3c-1.9,0.9-3.7-0.4-3.7-2.7c0-4.9-0.2-9.8,0-14.6
		c0.1-2.2-0.6-3-2.7-2.9c-1.9,0-2.3-1.2-2.3-2.7c-0.1-1.7,1.2-1.9,2.4-2c1.7-0.1,3.4-0.1,5.1,0c1.4,0.1,2.3,0.8,2.3,2.3
		c0,3.4,0,6.8,0,10.1C607.2,244.6,607.3,244.6,607.3,244.6z"/>
        <path d="M635.2,211.5c0,3.3,0,6.6,0,10c0,1.6-0.7,2.5-2.3,2.6c-1.7,0.1-2.5-0.9-2.5-2.5c0-5.2-0.1-10.4,0-15.6
		c0-1.5-0.3-2.2-1.9-2.2c-0.7,0-1.5-0.3-2.2-0.5c-0.9-0.4-1.3-1.1-1.3-2.1c0-1,0.6-1.7,1.4-2c2.4-0.7,4.8-0.7,7.2-0.1
		c1.2,0.3,1.4,1.3,1.4,2.3C635.2,204.7,635.3,208.1,635.2,211.5C635.2,211.5,635.2,211.5,635.2,211.5z"/>
        <path d="M660.8,244.3c0,3.4,0.1,6.9,0,10.3c0,1.8-1.1,2.9-2.6,2.8c-1.8-0.1-2.2-1.4-2.2-2.9c0-5.2-0.1-10.4,0-15.6
		c0-1.4-0.4-2-1.9-2.1c-2.8-0.3-3.5-1.1-3.1-3.1c0.2-0.9,0.7-1.5,1.6-1.6c2.1-0.2,4.2-0.3,6.3,0.1c1.2,0.2,1.8,0.8,1.8,2.1
		C660.8,237.6,660.8,240.9,660.8,244.3C660.8,244.3,660.8,244.3,660.8,244.3z"/>
</g>
    <g>
	<path d="M1674.6,97.5c0.3,9.5-2.2,18.4-6.9,26.5c-0.8,1.4-0.7,2.2,0.4,3.3c10.3,10.1,20.5,20.4,30.8,30.5c3.7,3.7,3.7,4.3,0.1,7.9
		c-3.2,3.1-6.4,6.3-9.6,9.5c-0.8,0.7-1.6,1.4-2.4,2.1c-1.2,1-2.4,1-3.5-0.2c-2-2-4-4-6-6c-8.8-8.5-17.6-17.1-26.1-25.9
		c-1.5-1.5-2.7-1.6-4.5-0.7c-7.6,4.1-15.7,6.6-24.4,6.8c-8.9,0.2-17.5-1.5-25.5-5.6c-17.8-9.1-28.2-23.5-30.3-43.2
		c-1.9-18,4.5-33.3,18-45.4c11.1-10,24.5-14.3,39.3-13.5c12.9,0.7,24.2,5.7,33.6,14.6c9.5,8.9,15.1,19.7,16.9,32.4
		c0.1,0.5,0.2,0.9,0.2,1.4C1674.6,94,1674.6,95.8,1674.6,97.5z M1620,145.6c26.1,0.4,49.2-19.9,48.9-48.9
		c-0.2-25.1-21.2-47.9-49.3-47.3c-25.7,0.6-47.1,21.2-47.5,47.4C1571.8,125.2,1595.1,146,1620,145.6z M1694.6,162.2
		c0-0.6-0.3-0.8-0.6-1.1c-6-6-12.1-12-18.1-18c-1.1-1.1-1.9-1-2.9,0.1c-2.1,2.2-4.1,4.5-6.3,6.5c-1.3,1.2-1.2,2.1,0.1,3.2
		c2.4,2.2,4.7,4.4,7,6.7c3.5,3.5,7,7,10.4,10.5c0.9,1,1.8,0.9,2.7,0c2.4-2.4,4.8-4.8,7.1-7.1
		C1694.3,162.8,1694.5,162.4,1694.6,162.2z M1661.4,146.6c0.2-0.1,0.6-0.3,0.9-0.6c2.5-2.4,4.9-4.8,7.3-7.2c0.8-0.8,0.5-1.6-0.1-2.2
		c-1.7-1.8-3.4-3.5-5.1-5.3c-0.7-0.7-1.2-0.5-1.8,0.1c-2.4,2.8-5,5.4-7.8,7.9c-0.6,0.6-0.7,1-0.1,1.6c1.7,1.6,3.3,3.2,5,4.8
		C1660.1,146.2,1660.6,146.6,1661.4,146.6z"/>
        <path d="M1609.6,111.3c-2.3,0-4.6,0-6.9,0c-1.2,0-1.8,0.4-2.2,1.6c-0.5,1.6-1.2,3.2-1.9,4.7c-0.6,1.4-1.6,1.8-3.1,1.4
		c-1.4-0.4-2.1-1.3-2-2.7c0-0.8,0.2-1.6,0.5-2.3c4.1-11.4,8.3-22.9,12.4-34.3c0.6-1.6,0.9-3.6,3.2-3.7c2.5-0.1,2.8,1.9,3.4,3.7
		c3.8,10.7,7.7,21.4,11.5,32.1c0.5,1.4,0.9,2.7,1.3,4.1c0.4,1.6-0.3,2.7-1.9,2.9c-1.4,0.2-3,0.6-3.7-1.6c-2.4-7.3-1-5.8-8.2-5.9
		C1611.4,111.3,1610.5,111.3,1609.6,111.3C1609.6,111.3,1609.6,111.3,1609.6,111.3z M1610.1,88.1c-0.6,0.1-0.8,0.4-0.9,0.7
		c-1.8,5-3.7,10-5.5,15c-0.4,1.2,0.3,1.6,1.3,1.6c3.1,0,6.2-0.1,9.3,0c1.3,0,1.7-0.5,1.2-1.7c-0.7-1.9-1.4-3.8-2-5.8
		C1612.4,94.6,1611,91.4,1610.1,88.1z"/>
        <path d="M1633.9,97.4c0-5.8,0-11.6,0-17.4c0-0.7,0-1.3,0.1-2c0.3-1.4,1.3-2.2,2.7-2.3c1.3-0.1,2.3,0.7,2.7,2
		c0.2,0.7,0.3,1.4,0.3,2.1c0,11.8,0,23.7,0,35.5c0,1.6-0.2,3-2.2,3.4c-2.3,0.4-3.4-0.3-3.6-2.7c-0.1-2,0-4.1,0-6.1
		C1633.9,105.8,1633.9,101.6,1633.9,97.4z"/>
</g>
    <g>
	<path d="M1234.2,68.9c0,5.9,0,11.7,0,17.6c0,1.5,0.4,2.1,2,2c2.4-0.1,4.9-0.1,7.3,0c1.2,0,1.7-0.6,2.2-1.6c1.5-3.1,3.8-5.2,7.1-6.1
		c4.3-1.2,9.6,1,11.8,5c2.3,4.2,1.4,9.6-2.1,12.9c-3.4,3.2-8.7,3.6-12.7,1.1c-1.8-1.2-3.4-2.7-4-4.8c-0.3-1-0.9-1.3-1.8-1.3
		c-2.6,0-5.3,0-7.9-0.1c-1.4-0.1-1.7,0.6-1.7,1.8c0,9.9,0,19.8,0.1,29.7c0,2.1,0,4.1-0.1,6.2c0,1.2,0.4,1.7,1.7,1.7
		c2.6-0.1,5.1-0.1,7.7,0.1c1.4,0.1,1.7-0.8,2.2-1.7c2.3-4.8,7.1-7,12-5.8c4.4,1.1,7.8,5.3,8.1,10c0.3,3.9-2.9,8.6-6.7,10
		c-4.3,1.6-9.3,0.2-12.1-3.4c0-0.1-0.1-0.1-0.1-0.2c-1.2-3.5-3.9-4.1-7.2-3.6c-1.3,0.2-2.7,0.1-4,0c-1.1-0.1-1.5,0.3-1.7,1.5
		c-1.2,10.8-10.8,19.4-21.7,19.4c-9.8,0.1-18.5-6.1-21.7-15.5c-0.2-0.6-0.5-0.9-1.2-1.1c-7.4-2.3-12.8-9.4-13-17.1
		c0-1.2-0.2-2.4-0.8-3.5c-1-2.1-1.8-4.3-1.7-6.7c0.1-2.1-0.7-3.8-2.1-5.4c-7.9-9.6-8.2-22.7-0.3-32.3c2-2.4,2.7-4.6,2.4-7.4
		c-0.3-2.6,0.5-5,1.7-7.2c0.7-1.3,0.9-2.6,0.8-4.1c-0.6-9.9,5.2-17.8,14.6-19.9c2.1-0.5,4.2-0.4,6.3-0.2c1.3,0.1,1.9-0.3,2.6-1.4
		c6.3-10.7,19.5-12.6,28.5-4.2c2.5,2.3,4.1,5.3,4.9,8.6c0.4,1.6,1.1,2.1,2.6,2c2.3-0.1,4.6-0.1,6.9,0c1.4,0.1,2-0.3,2.6-1.6
		c3.8-7.7,13.7-8.4,18.4-1.3c3.2,4.9,1.4,11.7-3.9,14.6c-5.1,2.9-11.9,0.7-14.2-4.5c-0.6-1.4-1.4-1.9-2.9-1.8
		c-2.2,0.1-4.5,0.1-6.8,0c-1.6-0.1-2.1,0.3-2.1,2C1234.4,57.1,1234.3,63,1234.2,68.9C1234.3,68.9,1234.2,68.9,1234.2,68.9z
		 M1228.9,92.5C1228.9,92.5,1228.9,92.5,1228.9,92.5c0-6.3,0-12.6,0-18.9c0-9.1-0.1-18.3,0-27.4c0.1-5.9-4.8-11.9-10.3-12.8
		c-5.4-0.8-9.8,0.9-13.3,5.1c-1.1,1.3-1.6,2.2,0.1,3.4c1.2,0.9,1.8,2.4,0.8,3.8c-1,1.5-2.5,1.2-4,0.5c-0.7-0.4-1.4-0.9-2.2-1.2
		c-2.3-1.1-4.8-1.5-7.3-1c-6.7,1.3-11.7,7.1-10.7,14.4c0.3,2.4,0.2,4.4-1.3,6.3c-0.8,1-1.2,2.3-1.5,3.5c-0.5,1.8,0.1,2.3,1.8,1.6
		c2-0.7,3.9-1.8,6-1.9c2.1-0.2,3-1.2,3.7-3.1c2.5-6.7,8.3-10.7,14.7-10.4c1.3,0.1,2.5,0.4,2.5,2c0,1.5-0.3,2.7-2.1,2.9
		c-1.1,0.1-2.2,0.4-3.2,0.6c-4.2,1-7.3,4.6-7.6,8.9c-0.3,3.1-0.8,3.6-4,3.9c-5.3,0.4-9.8,2.3-13.6,6c-6.9,6.6-7.6,18.6-3.2,25.7
		c1.4,2.3,1.4,2.3,3.1,0.3c3.1-3.7,7-5.7,11.9-5.9c1.6-0.1,3,1.1,3.1,2.6c0.1,1.6-0.9,2.3-2.3,2.5c-0.8,0.1-1.5,0.3-2.3,0.4
		c-7.6,1.6-11,10.9-6.3,16.4c1,1.2,1.1,2.4,0.9,3.8c-0.8,5.6,2.4,11.3,8,12.7c3.7,0.9,5,2.9,6.1,6.2c2.4,7.3,10.7,11.7,18.7,10.4
		c8.2-1.3,14.2-9.8,14.1-16.1C1228.7,122.6,1228.9,107.6,1228.9,92.5z M1255.3,41.4c-3.1-0.1-5.1,1.9-5.2,5.3c-0.1,2.7,2.1,4.9,5,5
		c2.7,0.1,5.5-2.3,5.3-5C1260.2,43.1,1258.8,41.3,1255.3,41.4z M1250.2,135.6c0,3.3,2.2,5.3,5.8,5.3c2.1,0,4.7-2.9,4.6-5.2
		c0-2.7-2.4-5.3-4.8-5.3C1252.2,130.5,1250.2,132.4,1250.2,135.6z M1255.3,96.2c2.8,0,5.2-2.4,5.2-5.2c-0.1-2.7-2.5-5.2-5-5.2
		c-3.1,0.1-5.3,2.3-5.3,5.2C1250.2,94.1,1252.3,96.2,1255.3,96.2z"/>
        <path d="M1257.4,70c-5,0-10,0-15,0c-2.3,0-2.8-0.7-2.8-2.9c0-1.2,0.5-1.8,1.6-2.1c1.5-0.3,3-0.4,4.6-0.4c8.1,0.1,16.2-0.1,24.3,0.2
		c2.9,0.1,4.6-1.6,6.5-3.1c0.7-0.5,0.2-1.3,0.1-2c-1-4.5,0.2-8.3,3.9-11.2c3.7-3,9.3-2.8,13.2,0.4c3.2,2.6,4.4,8.1,2.6,12
		c-2,4.5-6.6,7-11.3,6.1c-1-0.2-2.1-0.3-2.9-0.8c-1.4-0.9-2.6-0.6-3.6,0.5c-2.6,3-6,3.6-9.7,3.4C1265,69.9,1261.2,70.1,1257.4,70
		C1257.4,70,1257.4,70,1257.4,70z M1281.5,57c0,2.9,2.3,5.2,5.1,5.2c3,0,5.4-2.3,5.4-5.3c0-2.7-2.3-5.1-5-5.1
		C1283.7,51.7,1281.6,53.7,1281.5,57z"/>
        <path d="M1257.9,112c3.8,0,7.6,0.2,11.4,0c3.5-0.2,6.6,0.5,9.1,3.2c1.2,1.3,2.4,1.3,4.1,0.5c5.6-2.6,12.2,0.3,14.2,6.1
		c2,5.8-1.3,11.9-7.3,13.6c-5.5,1.5-11.7-2.3-12.8-8c-0.2-1.2-0.2-2.4-0.1-3.6c0.1-1.2,1-2.8-0.1-3.6c-1.7-1.3-3.2-3.1-5.7-2.9
		c-1.3,0.1-2.6,0-3.9,0.1c-8,0.3-16.1,0.1-24.1-0.2c-0.6,0-1.2-0.1-1.7-0.4c-1.1-0.4-1.5-1.4-1.3-2.5c0.1-1.1,0.6-1.8,1.8-1.9
		c1.2-0.1,2.3-0.3,3.5-0.3C1249.3,112,1253.6,112.1,1257.9,112C1257.9,112,1257.9,112,1257.9,112z M1287.1,120.2c-3,0-5.5,2-5.5,4.5
		c0,3,2.5,5.8,5.2,5.7c2.6-0.1,5.1-2.7,5.1-5.3C1291.9,122.4,1289.7,120.2,1287.1,120.2z"/>
        <path d="M1210.5,78.9c-0.1,2.3-0.5,4.5-1.8,6.4c-0.8,1.2-0.3,1.6,0.8,2.1c5.3,2.7,8.2,7,9,12.8c0.3,2.4-0.5,3.6-2.2,3.7
		c-1.8,0.1-2.5-0.9-2.8-2.5c-0.4-2.9-1.2-5.7-3.6-7.6c-2.6-2-5.3-3.6-8.7-1.5c-1.7,1.1-3.9,1.3-6,1.2c-1.6-0.1-2.7-0.8-2.8-2.5
		c-0.1-1.6,1-2.2,2.4-2.5c1.6-0.3,3.3-0.4,4.8-1.2c3.7-1.9,5.6-4.9,5.9-9.1c0.1-1.3,0.1-2.8,2.1-2.8
		C1210.1,75.3,1210.6,75.8,1210.5,78.9z"/>
        <path d="M1198,110.9c0.9-0.1,1.5,0,2,0.6c2.1,2.4,3.8,4.9,4.1,8.1c0.1,1.5,0.8,2.1,2.1,2.5c3.7,1.3,6.5,3.6,8.1,7.2
		c0.9,2,0.3,3.2-1.5,3.8c-1.1,0.3-1.7-0.1-2.3-0.8c-1.1-1.4-2-3-3.5-4.1c-2-1.6-3-1.4-4.1,0.9c-0.8,1.5-1.7,2.9-2.9,4
		c-1.4,1.3-2.7,1.4-3.9,0.3c-1.3-1.2-0.9-2.4,0-3.6c1.6-2.2,3.3-4.4,3.2-7.4c-0.2-2.7-1-5-2.9-6.9c-0.9-0.9-1.2-1.9-0.7-3.1
		C1196.1,110.9,1197.1,110.8,1198,110.9z"/>
</g>
    <g>
	<path d="M901.3,403.3c-7.5,0-14.9,0-22.4,0c-0.7,0-1.4-0.1-2.1-0.2c-1.4-0.2-1.9-1-2-2.5c0-3,0.2-5.9-0.1-8.9
		c-0.3-2.9-2.3-4.8-5.2-5.2c-2.6-0.4-5.2-0.2-7.9-0.2c-10.2,0.1-15.9-5.2-16.1-15.4c-0.1-4.5-0.1-9,0-13.5c0.1-2-0.7-2.7-2.5-3.1
		c-2.1-0.4-4.2-1-6.2-1.7c-4.3-1.5-5.9-5.8-3.5-9.7c3.4-5.3,7-10.3,10.5-15.5c0.9-1.3,1.7-2.7,1.7-4.4c-0.1-15.3,7-26.9,19-35.9
		c23-17.5,53.1-12.1,69.4,6.2c16.5,18.4,16,44.9-0.7,62.9c-0.8,0.8-1.4,1.8-2.4,2.4c-2.1,1.4-2.6,3.2-2.6,5.6
		c0.1,11.5,0,23.1,0,34.6c0,4.2-0.4,4.6-4.6,4.6C916.3,403.3,908.8,403.3,901.3,403.3z M901.5,398.5
		C901.5,398.5,901.5,398.5,901.5,398.5c6.5,0,13,0.1,19.5,0c2.7,0,2.7-0.1,2.7-2.8c-0.2-11,0.2-22-0.3-33c-0.1-2.7,0.8-4.7,2.9-6.4
		c4.7-3.9,8.5-8.6,10.9-14.2c5.8-13.2,5.8-26.4-1.5-38.8c-11.1-19-33.4-26.1-54.1-20c-8.4,2.5-15.2,7.5-21.2,13.8
		c-3.2,3.3-5.6,7.1-7.3,11.3c-1.8,4.5-2.4,9.2-2.5,13.9c0,2.2-0.4,4.3-1.8,6.2c-3.8,5.3-7.4,10.7-11,16c-1.5,2.2-1.2,3,1.4,3.8
		c2.9,0.9,5.8,1.7,8.8,2.5c1.7,0.5,2.5,1.4,2.5,3.3c-0.1,5.8-0.1,11.6-0.1,17.5c0,5.7,3.8,10.1,9.8,9.9c2.9-0.1,5.7-0.1,8.6,0
		c5.5,0.2,10,3.8,10.8,9.1c0.3,1.9,0.2,3.9,0.1,5.9c-0.1,1.4,0.4,1.9,1.8,1.8C888.1,398.4,894.8,398.5,901.5,398.5z"/>
        <path d="M881.2,299.3c0.4,0,0.9,0.3,1.4,0.6c0.8,0.5,1.5,1,2.3,1.4c1.8,0.8,3.5,0.1,4.2-1.8c0.5-1.2,0.8-2.4,1.2-3.5
		c0.3-1.1,1.1-1.7,2.2-1.6c2.7,0,5.5,0.1,8.2,0.1c1.3,0,2.1,0.6,2.4,1.9c0.3,1.1,0.6,2.3,1.1,3.4c0.8,1.9,2.2,2.3,4.1,1.5
		c0.1,0,0.1,0,0.2-0.1c5.2-2.6,4-2.7,8.4,1.4c0.2,0.2,0.3,0.3,0.5,0.5c4.6,4.7,4,3.7,1.5,8.8c-0.7,1.5,0,3.4,1.5,3.9
		c1.2,0.4,2.4,0.8,3.6,1.1c1.2,0.4,1.8,1.1,1.8,2.4c0,2.7,0,5.5,0,8.2c0,1.4-0.6,2.2-2,2.5c-1.2,0.2-2.3,0.6-3.4,1.1
		c-1.6,0.7-2.2,2.2-1.5,3.8c0.4,0.9,0.8,1.9,1.4,2.7c0.9,1.3,0.6,2.5-0.3,3.6c-1.9,2.2-4,4.1-6.1,6c-0.7,0.6-1.4,0.5-2.2,0.2
		c-1.1-0.6-2.2-1.2-3.3-1.7c-1.8-0.9-3.6-0.2-4.3,1.7c-0.3,0.9-0.6,1.8-0.7,2.8c-0.3,1.5-1.2,2.3-2.7,2.3c-2.6,0-5.1,0-7.7,0
		c-1.6,0-2.7-0.9-3-2.5c-0.2-0.9-0.4-1.7-0.7-2.6c-0.6-1.8-2.7-2.6-4.4-1.7c-5.3,3-4.6,2.5-8.6-1.5c-0.8-0.8-1.5-1.5-2.2-2.3
		c-1.9-1.8-2-2.3-0.7-4.7c0.8-1.5,1.7-2.8,1.2-4.7c-0.2-0.9-0.5-1.4-1.5-1.5c-0.2,0-0.4,0-0.5-0.1c-4.5-1-5-1.7-5-6.2
		c0-1.8,0-3.6,0-5.3c0-1.2,0.5-1.9,1.7-2.2c1.2-0.3,2.4-0.7,3.6-1.1c2-0.7,2.6-2.4,1.7-4.3c-2.3-4.6-2.3-4.6,1.3-8.3c1-1,2-2,3-3
		C879.4,299.7,880.1,299.3,881.2,299.3z M906.8,340.2c1.8-0.1,2.9,0.4,3.9,1.1c1,0.8,2,0.8,2.8-0.2c0.9-1.1,2.6-1.9,1.3-3.8
		c-0.5-0.8-1.2-1.5-1.3-2.5c-0.4-3.2,2.6-7.7,5.9-8.4c1.7-0.3,1.9-1.5,1.8-2.8c0-1.3,0.4-2.9-1.7-3.1c-2.6-0.2-4.1-1.6-4.7-4.1
		c-0.1-0.4-0.3-0.8-0.5-1.2c-1-2-1-3.9,0.4-5.7c0.9-1.1,0.6-2-0.3-3c-1.8-2-2.4-2.2-4.7-0.9c-1.6,0.9-3.1,1-4.7,0.2
		c-0.6-0.3-1.2-0.5-1.8-0.7c-1.9-0.5-3.1-1.8-3.4-3.7c-0.3-1.9-1.2-2.6-3-2.3c-0.3,0-0.6,0-0.9,0c-1.2-0.1-2,0.2-2.2,1.6
		c-0.3,2.7-2,4.1-4.5,4.8c-1.9,0.5-3.5,1.4-5.6,0.2c-2.8-1.6-2.5-2-4.8,0.8c-0.2,0.2-0.3,0.3-0.5,0.5c-0.7,0.6-0.8,1.2-0.2,1.9
		c2.1,2.5,1.7,5,0.4,7.8c-1,2.2-2.5,3.5-4.9,3.9c-0.5,0.1-0.9,0-1.2,0.5c-1.2,2.1-0.1,4.9,2.2,5.4c1.7,0.4,2.9,1.3,3.5,2.9
		c0.4,1.1,0.9,2.2,1.3,3.3c0.6,1.7,0.2,3.1-0.9,4.4c-0.3,0.4-0.6,0.7-0.6,1.2c0.3,2.2,3,3.7,4.9,2.8c1.5-0.7,2.9-1.5,4.6-0.8
		c2.9,1.2,6.1,2.1,6.3,6.1c0.1,1,0.7,1.4,1.8,1.3c0.8-0.1,1.6-0.1,2.3-0.1c1,0,1.6-0.5,1.7-1.5c0.3-1.8,0.6-3.5,2.7-4.3
		C904.1,341.3,905.6,340.4,906.8,340.2z"/>
        <path d="M897,335.3c-6.8,0.1-12.1-5.1-12.3-11.5c-0.2-6.8,5.5-12.3,11.7-12.3c6.8-0.1,12.3,5.2,12.4,11.9
		C908.9,329.8,903.6,335.2,897,335.3z M896.6,330.7c4.1,0,7.5-3.2,7.6-7.2c0.1-3.9-3.3-7.5-7.1-7.5c-4.2,0-7.6,3.3-7.6,7.5
		C889.4,327.5,892.5,330.6,896.6,330.7z"/>
</g>
    <g>
	<path d="M1405.4,295.4c-23.2-1-45.5-12.1-61.7-34.6c-2.8-3.9-2.7-4.9,0-8.9c9.5-14.1,22.1-24.5,38.1-30.5
		c22.4-8.4,44.3-7.1,65.7,3.7c12.5,6.3,22.6,15.5,30.2,27.3c2.5,3.9,3.1,3.8-0.2,8.4c-9.7,13.8-22.4,23.8-38.4,29.5
		C1427.7,294.4,1421.5,295.3,1405.4,295.4z M1408,221.2c-3,0.4-9,0.9-14.7,2.2c-19.3,4.2-34.2,15-45.5,31.1c-1,1.4-0.9,2.6,0.1,3.9
		c1.2,1.5,2.4,3.1,3.6,4.6c18.7,22.2,42.9,30.1,71.2,26.4c14.4-1.9,27.3-8,38.1-17.6c4.6-4.1,8.2-9.2,12.2-13.8c0.7-0.8,1-1.8,0.2-3
		c-8.5-12.7-19.7-22.1-33.8-28C1430.4,223,1420.8,221.6,1408,221.2z"/>
        <path d="M1459.5,189.5c2.3,0.1,4.6,0,6.8,0.3c5.9,0.8,9.9,4.6,10.4,10.4c0.4,4.4,0.1,8.9,0,13.4c0,1.4-0.7,2.3-2.3,2.3
		c-1.6-0.1-2.5-0.8-2.5-2.4c-0.1-2.2-0.1-4.4-0.1-6.6c0-1.9,0.1-3.8-0.1-5.6c-0.3-3.9-2.9-6.3-6.8-6.4c-3-0.1-6,0-9,0
		c-1,0-2.1-0.1-3.1-0.2c-1.5-0.1-2.3-0.9-2.2-2.4c0-1.5,0.5-2.6,2.2-2.6c2.2,0,4.4,0,6.6,0C1459.5,189.6,1459.5,189.5,1459.5,189.5z
		"/>
        <path d="M1344,207.2c0-1.5,0-3,0-4.5c0.1-7.9,4.8-12.8,12.6-13.2c3.3-0.2,6.5-0.1,9.8-0.1c2.5,0,4.2,1.2,4.1,2.7
		c-0.1,1.5-1.5,2.5-4,2.5c-3,0.1-6,0.1-9,0c-4.4-0.2-8.4,2.4-8.2,7.9c0.2,3.5-0.1,7-0.3,10.5c-0.1,1.5-0.5,2.9-2.5,2.8
		c-2-0.1-2.5-1.4-2.5-3C1344,211,1344,209.1,1344,207.2C1344,207.2,1344,207.2,1344,207.2z"/>
        <path d="M1361.7,321.8c-2.2,0-4.5,0.2-6.6,0c-6.5-0.7-10.6-5.1-10.9-11.8c-0.2-3.9,0-7.8,0-11.7c0-1.6,0.8-2.3,2.4-2.4
		c1.6-0.2,2.6,0.4,2.7,2c0.2,3.6,0.5,7.3,0.2,10.9c-0.3,6.1,3.4,8.2,8.2,8.2c3.3,0,6.5,0,9.8,0c2,0,3,0.9,3,2.8c0,2-1.3,2.3-2.9,2.3
		C1365.4,321.8,1363.5,321.8,1361.7,321.8C1361.7,321.8,1361.7,321.8,1361.7,321.8z"/>
        <path d="M1459.6,321.8c-2.2,0-4.3,0-6.5,0c-1.7,0-2.4-1-2.3-2.7c0.1-1.6,0.7-2.3,2.4-2.3c3.5,0.1,7,0,10.6,0c4.7,0,8.1-2.3,7.9-7.6
		c-0.1-2.9-0.1-5.7-0.1-8.6c0-1.1,0.2-2.2,0.4-3.3c0.3-1.2,1.1-1.9,2.4-1.7c1.2,0.2,2.2,0.5,2.2,2c0,5,0.3,10-0.3,14.9
		c-0.7,5.2-5.5,8.9-10.9,9.2C1463.6,321.9,1461.6,321.8,1459.6,321.8C1459.6,321.8,1459.6,321.8,1459.6,321.8z"/>
        <path d="M1410.4,284.8c-16.4,0-29.3-13.4-29.1-30.3c0.2-13.3,11.5-27.6,29.2-27.8c15.9-0.2,29.4,13.3,29.3,28.9
		C1439.8,271.6,1426.4,284.9,1410.4,284.8z M1410.3,279.5c14-0.1,24.2-10.2,24.1-23.9c-0.1-13.3-10.7-23.8-24.1-23.7
		c-13.4,0-23.9,10.7-23.8,24.2C1386.6,269.3,1397,279.6,1410.3,279.5z"/>
        <path d="M1410.6,266.1c-5.9,0-10.5-4.7-10.6-10.7c0-5.3,4.9-10.2,10.4-10.2c5.8,0,10.7,5,10.7,10.7
		C1421,261.5,1416.2,266.1,1410.6,266.1z M1410.7,261.2c2.8,0,5.3-2.6,5.2-5.4c0-2.8-2.5-5.2-5.5-5.2c-3,0-5.2,2.1-5.3,5.3
		C1405.2,258.8,1407.7,261.2,1410.7,261.2z"/>
</g>
    <g>
	<path d="M108.9,143.1c3.7,0,7.1,0.1,10.5-0.1c0.5,0,1.3-0.6,1.5-1.2c1.8-4.5,6.3-7.4,10.9-7c5.1,0.4,9.2,4.1,10.2,9.1
		c0.9,4.5-1.6,9.4-5.8,11.6c-4.2,2.2-9.5,1.2-12.9-2.4c-0.4-0.4-1-0.9-1.2-1.4c-1.1-3.2-3.4-3.6-6.4-3.2c-1.7,0.2-3.4,0.1-5.1,0
		c-1.6-0.1-1.9,0.6-1.9,2c0.1,4.4,0.1,8.7,0.1,13.1c0,3.7-0.6,4.4-4.3,4.2c-18.9-0.8-35.2-7.5-48.3-21.3
		c-13.2-13.9-20-30.4-19.6-49.7c0.5-21.2,9.3-38.4,25.3-52C74.1,34.8,88.3,29.9,104,29c0.7,0,1.4,0,2,0c1.7,0.1,2.7,0.8,2.7,2.6
		c0,4.2,0,8.3,0,12.5c-0.1,5.4,0,4.2,4.2,4.3c1.6,0.1,3.3-0.1,4.9,0.1c1.8,0.2,2.7-0.5,3.5-2.1c2.7-5.2,8-7.4,13.4-5.8
		c7.3,2.2,9.8,12,4.8,17.7c-5.4,6.3-16,3.9-18.4-3c-0.4-1.3-1.3-1.6-2.5-1.6c-2.7,0-5.3,0.1-8,0c-1.4,0-2,0.5-2,1.9
		c0.1,12.8,0.2,25.5,0.2,38.3c0,1.2,0.4,1.7,1.7,1.7c2.5,0,5,0.1,7.6,0.3c1.6,0.1,2.4-0.3,3.1-1.9c2.5-5.8,8.9-8.1,14.5-5.5
		c5.5,2.5,8.2,9.3,5.5,14.7c-1.9,3.8-5.1,6-9.4,6.2c-4.6,0.2-8.2-1.7-10.3-5.7c-1-1.9-2-2.7-4.2-2.5c-2.2,0.2-4.4,0.1-6.5,0
		c-1.4-0.1-1.9,0.3-1.9,1.8c0,12.8-0.1,25.5-0.1,38.3C108.7,141.9,108.8,142.4,108.9,143.1z M76.4,128.6c0.5,1.5,0.9,2.9,1.4,4.3
		c3,8.4,6.8,16.3,13.2,22.7c2.9,2.8,6,5.1,9.9,6.3c2.1,0.7,2.6,0.3,2.6-1.9c0-2.8-0.1-5.6-0.1-8.4c0-7.8,0-15.5,0.1-23.3
		c0-1.3-0.3-2-1.8-2C93.3,126.3,84.9,126.5,76.4,128.6z M103.4,34.9c-3-0.1-5.2,1.2-7.3,2.6c-10.8,6.9-15.2,17.9-19,29.4
		c-0.4,1.3,0.1,2,1.6,2.1c7.5,0.6,15,1.1,22.6,1.8c1.8,0.1,2.2-0.5,2.2-2.2c-0.1-7.2-0.1-14.4-0.1-21.7
		C103.4,43,103.4,39.1,103.4,34.9z M42.2,101.3c0.1,10.6,3.5,19.9,8.1,28.9c0.2,0.5,1.6,0.8,2.2,0.6c5.2-1.8,10.3-3.8,15.5-5.6
		c1.5-0.5,2-1.3,1.8-2.9c-0.8-6.3-1.7-12.5-2.4-18.8c-0.2-1.7-0.8-2.2-2.4-2.2c-5.7,0.1-11.4,0-17.2,0
		C46,101.3,44.2,101.3,42.2,101.3z M42.2,95.6c8.1,0,16,0,23.9-0.1c0.4,0,1.1-0.9,1.1-1.4c0.9-6.7,1.7-13.4,2.4-20
		c0.1-0.6-0.5-1.6-1-1.8c-5.4-2-10.9-3.9-16.3-6c-1.2-0.5-1.9-0.1-2.4,1c-1.1,2.6-2.4,5-3.5,7.6C43.9,81.5,42.3,88.3,42.2,95.6z
		 M103.3,120.9c0.1-0.5,0.2-0.7,0.2-1c0-5.5-0.1-11-0.1-16.6c0-1.7-0.6-2-2.2-2c-8.3,0-16.6,0-25,0c-3.6,0-3.8,0-3.4,3.7
		c0.5,5.5,1.4,10.9,2,16.4c0.2,1.5,0.7,1.9,2.1,1.6C85.6,121.2,94.3,120.8,103.3,120.9z M72.3,95.6c0.9,0.1,1.2,0.2,1.5,0.2
		c9.2,0,18.4-0.1,27.6-0.1c1.5,0,2-0.5,2-2c0-5-0.1-10.1,0.2-15.1c0.1-1.7-0.2-2.2-2-2.3C95.2,76,88.8,75.5,82.4,75
		c-2.4-0.2-4.8-0.6-7.5-1C74,81.4,73.2,88.4,72.3,95.6z M87,37.4c-2.6,0.8-4.7,1.3-6.6,2.2c-9.9,4.3-18,10.9-24.7,19.3
		c-1.5,1.9-1.5,2.4,0.9,3.3c4.1,1.6,8.3,2.9,12.5,4.5c1.8,0.7,2.5,0.2,3-1.6c2.9-9.7,7.3-18.6,14.1-26.2
		C86.3,38.6,86.4,38.3,87,37.4z M53.9,136.2c8.7,11.1,19.1,19.1,32.4,23.1c-0.5-1-1.1-1.9-1.7-2.7c-1.7-2.3-3.7-4.5-4.9-7
		c-2.8-5.9-5.2-12-7.9-17.9c-0.3-0.7-1.4-1.7-1.8-1.6C64.5,131.5,59.2,133.3,53.9,136.2z M131.1,151.4c3.4,0,5.9-2.3,5.8-5.5
		c-0.1-3.1-2.7-5.8-5.7-5.8c-2.9,0-5.5,2.5-5.5,5.4C125.7,149.2,127.8,151.4,131.1,151.4z M131.5,56.7c2.7,0,5.4-2.6,5.4-5.3
		c0-2.7-2.6-5.8-5-5.8c-3.4-0.1-6.3,2.5-6.4,5.4C125.5,54.4,127.8,56.7,131.5,56.7z M131.4,93c-3.4,0-5.7,2.2-5.8,5.5
		c0,3.3,2.4,5.7,5.6,5.7c2.9-0.1,5.5-2.8,5.5-5.7C136.7,95.4,134.4,93,131.4,93z"/>
        <path d="M134,76c-5.6,0-11.2,0-16.8,0c-1.6,0-2.5-0.7-2.4-2.3c0.1-1.5,0.5-2.8,2.5-2.8c4.4,0,8.7-0.1,13.1-0.1
		c5.2,0,10.5,0,15.7,0.2c3.1,0.2,5.6-1.1,7.7-3c0.4-0.3,0.4-1.5,0.2-2.1c-1.7-6.4,1.8-12.6,8-14.1c5.4-1.3,11.6,2.3,13.1,7.8
		c1.5,5.6-1.7,11.5-7.3,13.3c-3,1-5.8,0.7-8.5-0.7c-1.2-0.6-2-0.5-3.1,0.4c-2.7,2.6-5.9,4-9.8,3.8c-4.2-0.2-8.5,0-12.7,0
		C134,76.1,134,76,134,76z M164.7,67.8c2.9,0,5.4-2.5,5.4-5.5c0.1-3.3-2.2-5.5-5.7-5.5c-2.8,0-5.5,2.7-5.5,5.6
		C158.9,65.3,161.5,67.8,164.7,67.8z"/>
        <path d="M134.3,120.9c4.5,0,9,0.2,13.5-0.1c3.4-0.2,5.9,1.3,8.1,3.6c1.2,1.2,2.3,1.4,3.8,0.6c4.5-2.3,9.5-1.4,12.7,2
		c3.6,3.8,4.3,8.7,1.8,13c-2.6,4.4-7.4,6.5-12.4,5.3c-6.2-1.5-9.7-7.7-7.7-13.7c0.4-1.3,0-1.8-0.9-2.7c-2.4-2.4-5.2-2.7-8.4-2.7
		c-8.9,0.1-17.9,0.1-26.8,0c-1.1,0-2.6-0.5-3.1-1.3c-1.3-2-0.3-3.8,2.2-3.9c5.4-0.2,10.8-0.1,16.1-0.1
		C133.6,120.9,134,120.9,134.3,120.9C134.3,120.9,134.3,120.9,134.3,120.9z M170.1,134.6c0-3.2-2.2-5.4-5.6-5.5
		c-3-0.1-5.5,2.6-5.5,5.9c0,3,2.4,5.3,5.5,5.4C167.8,140.3,170.1,137.9,170.1,134.6z"/>
</g>
    <g>
</g>
    <g>
</g>
    <g>
</g>
    <g>
</g>
    <g>
</g>
</svg>
